/* XPM */
static char *result[] = {
/* columns rows colors chars-per-pixel */
"50 50 139 2 ",
"   c #630000",
".  c #6D0000",
"X  c #7F0000",
"o  c #800000",
"O  c #8D0000",
"+  c #970D00",
"@  c #951B00",
"#  c #A10000",
"$  c #AF0000",
"%  c #AF0E00",
"&  c #B10100",
"*  c #BA0000",
"=  c #B10C00",
"-  c #AF1300",
";  c #AD1C00",
":  c #B21300",
">  c #B81200",
",  c #B21D00",
"<  c #872618",
"1  c #962611",
"2  c #982512",
"3  c #A52706",
"4  c #AD2401",
"5  c #B12200",
"6  c #B22903",
"7  c #B6240D",
"8  c #BC230E",
"9  c #B22D0D",
"0  c #BB2D0A",
"q  c #A42C16",
"w  c #A92A14",
"e  c #A82E19",
"r  c #B52710",
"t  c #B32C12",
"y  c #BA2C12",
"u  c #B43116",
"i  c #BA3416",
"p  c #B3331C",
"a  c #BC341B",
"s  c #B33E1A",
"d  c #BE3A19",
"f  c #AF3621",
"g  c #AF3B2B",
"h  c #B33622",
"j  c #B03825",
"k  c #B13C2B",
"l  c #BA3F2B",
"z  c #C22F14",
"x  c #C33115",
"c  c #C63718",
"v  c #C33E1C",
"b  c #CD3C1B",
"n  c #B6411B",
"m  c #BB451D",
"M  c #B54A2D",
"N  c #B8492C",
"B  c #B24233",
"V  c #C2401D",
"C  c #D0421E",
"Z  c #E14E00",
"A  c #E15311",
"S  c #F2591A",
"D  c #CF4721",
"F  c #CE4923",
"G  c #D24720",
"H  c #D34C23",
"J  c #DA4E25",
"K  c #D45125",
"L  c #DC5427",
"P  c #DD5628",
"I  c #DE592B",
"U  c #E05627",
"Y  c #EF5D24",
"T  c #E15629",
"R  c #E45B2B",
"E  c #E85E2D",
"W  c #F05D2A",
"Q  c #E45F32",
"!  c #E36134",
"~  c #E3613D",
"^  c #F36433",
"/  c #BD4C40",
"(  c #B25349",
")  c #B25A53",
"_  c #B15F5A",
"`  c #B4605A",
"'  c #8B7678",
"]  c #9B7F7F",
"[  c #B36B66",
"{  c #BE6E66",
"}  c #B2726E",
"|  c #A77573",
" . c #B27471",
".. c #BA7470",
"X. c #B47877",
"o. c #B47F7B",
"O. c #C66050",
"+. c #DC6A53",
"@. c #9C8081",
"#. c #888F91",
"$. c #8D9194",
"%. c #98999A",
"&. c #AD898A",
"*. c #B58382",
"=. c #B38A87",
"-. c #B58C8C",
";. c #A79798",
":. c #B59596",
">. c #B89191",
",. c #B59B9B",
"<. c #949EA5",
"1. c #9F9FA1",
"2. c #A4A3A8",
"3. c #A3A9AC",
"4. c #B5A2A4",
"5. c #BFA2A4",
"6. c #B9A7A8",
"7. c #B7AAAC",
"8. c #BDABAC",
"9. c #B1AFB1",
"0. c #B9AFB1",
"q. c #ADB2B3",
"w. c #B8B1B3",
"e. c #B4B6BA",
"r. c #B8B7B9",
"t. c #B3B8BB",
"y. c #B9BBBE",
"u. c #C1A1A2",
"i. c #B4BDC1",
"p. c #BABEC1",
"a. c #B4C1C6",
"s. c #BAC2C5",
"d. c #BBC6C9",
"f. c #BFC8CC",
"g. c #C4C2C4",
"h. c #C2C7CB",
"j. c #C5CACD",
"k. c #C4CCD0",
"l. c #464646",
/* pixels */
"l.l.l.l.l.l.l.l.l.l.l.l.l.l.l.l.l.l.l.l.l.l.l.l.l.l.l.l.l.l.l.l.l.l.l.l.l.l.l.l.l.l.l.l.l.l.l.l.l.l.",
"l.l.l.l.l.l.l.l.l.l.l.l.l.l.l.l.l.l.l.l.l.l.l.l.l.l.l.l.l.l.l.l.l.l.l.l.l.l.l.l.l.l.l.l.l.l.l.l.l.l.",
"l.l.l.l.l.l.l.l.l.l.l.l.l.l.l.l.l.l.l.l.l.l.l.l.l.l.l.l.l.l.l.l.l.l.l.l.l.l.l.l.l.l.l.l.l.l.l.l.l.l.",
"l.l.l.l.l.l.l.l.l.l.l.l.l.l.l.l.l.l.l.l.l.l.l.l.l.l.l.l.l.l.l.l.l.l.l.l.l.l.l.l.l.l.l.l.l.l.l.l.l.l.",
"l.l.l.l.l.l.l.l.l.l.l.l.l.l.l.l.l.l.l.l.l.l.l.l.l.l.l.l.l.l.l.l.l.l.l.l.l.l.l.l.l.l.l.l.l.l.l.l.l.l.",
"l.l.l.l.l.l.l.l.l.l.l.l.l.l.l.l.l.l.l.l.l.l.l.l.l.l.l.l.l.l.l.l.l.l.l.l.l.l.l.l.l.l.l.l.l.l.l.l.l.l.",
"l.l.l.l.l.l.l.l.l.l.l.l.l.l.l.l.l.l.l.l.l.l.l.l.l.l.l.l.l.l.l.l.l.l.l.l.l.l.l.l.l.l.l.l.l.l.l.l.l.l.",
"l.l.l.l.l.l.l.l.l.l.l.l.l.l.l.l.l.l.l.l.l.l.l.l.l.l.l.l.l.l.l.l.l.l.l.l.l.l.l.l.l.l.l.l.l.l.l.l.l.l.",
"l.l.l.l.l.l.l.l.l.l.l.l.l.l.l.l.l.l.l.l.l.l.l.l.l.l.l.l.l.l.l.l.l.l.l.l.l.l.l.l.l.l.l.l.l.l.l.l.l.l.",
"l.l.l.l.l.l.l.l.l.l.l.l.l.l.l.l.l.l.l.l.l.l.l.l.l.l.l.l.l.l.l.l.l.l.l.l.l.l.l.l.l.l.l.l.l.l.l.l.l.l.",
"l.l.l.l.l.l.l.l.l.l.l.l.l.l.l.l.l.l.l.l.l.l.l.l.l.l.l.l.l.l.l.l.l.l.l.l.l.l.l.l.l.l.l.l.l.l.l.l.l.l.",
"l.l.l.l.l.l.l.l.l.l.l.l.l.l.l.l.l.l.l.l.l.l.l.l.O * o l.l.l.l.l.l.l.l.l.l.l.l.l.l.l.l.l.l.l.l.l.l.l.",
"l.l.l.l.l.l.l.l.l.l.l.l.l.l.l.l.l.l.l.l.l.l.l.#.w.,.9.l.l.l.l.l.l.l.l.l.l.l.l.l.l.l.l.l.l.l.l.l.l.l.",
"l.l.l.l.l.l.l.l.l.l.l.l.l.l.l.l.l.l.l.l.l.l.l.3.k.s.j.%.l.l.l.l.l.l.l.l.l.l.l.l.l.l.l.l.l.l.l.l.l.l.",
"l.l.l.l.l.l.l.l.l.l.l.l.l.l.l.l.l.l.l.l.l.l.l.t.p.y.p.q.l.l.l.l.l.l.l.l.l.l.l.l.l.l.l.l.l.l.l.l.l.l.",
"l.l.l.l.l.l.l.l.l.l.l.l.l.l.l.l.l.l.l.l.l.l.' h.d.s.d.g.l.l.l.l.l.l.l.l.l.l.l.l.l.l.l.l.l.l.l.l.l.l.",
"l.l.l.l.l.l.l.l.l.l.l.l.l.l.l.l.l.l.l.l.l.l.@ ..,.6.,.{ + l.l.l.l.l.l.l.l.l.l.l.l.l.l.l.l.l.l.l.l.l.",
"l.l.l.l.l.l.l.l.l.l.l.l.l.l.l.l.l.l.l.l.l.l.q = $ : $ > e l.l.l.l.l.l.l.l.l.l.l.l.l.l.l.l.l.l.l.l.l.",
"l.l.l.l.l.l.l.l.l.l.l.l.l.l.l.l.l.l.l.l.l.o i k j f j k 0 l.l.l.l.l.l.l.l.l.l.l.l.l.l.l.l.l.l.l.l.l.",
"l.l.l.l.l.l.l.l.l.l.l.l.l.l.l.l.l.l.l.l.l.@.l $ 4 5 4 & N ] l.l.l.l.l.l.l.l.l.l.l.l.l.l.l.l.l.l.l.l.",
"l.l.l.l.l.l.l.l.l.l.l.l.l.l.l.l.l.l.l.l.l.i.6. .) B _ ..u.t.l.l.l.l.l.l.l.l.l.l.l.l.l.l.l.l.l.l.l.l.",
"l.l.l.l.l.l.l.l.l.l.l.l.l.l.l.l.l.l.l.l.$.h.s.s.p.r.p.s.f.h.l.l.l.l.l.l.l.l.l.l.l.l.l.l.l.l.l.l.l.l.",
"l.l.l.l.l.l.l.l.l.l.l.l.l.l.l.l.l.l.l.l.3.h.y.p.p.p.p.p.y.h.1.l.l.l.l.l.l.l.l.l.l.l.l.l.l.l.l.l.l.l.",
"l.l.l.l.l.l.l.l.l.l.l.l.l.l.l.l.l.l.l.l.&.f.s.i.p.p.p.p.p.s.| l.l.l.l.l.l.l.l.l.l.l.l.l.l.l.l.l.l.l.",
"l.l.l.l.l.l.l.l.l.l.l.l.l.l.l.l.l.l.l.< > -.r.p.d.d.s.p.e.*.* l.l.l.l.l.l.l.l.l.l.l.l.l.l.l.l.l.l.l.",
"l.l.l.l.l.l.l.l.l.l.l.l.l.l.l.l.l.l.l.2 p - g _ o.-.X.) h = a 2 l.l.l.l.l.l.l.l.l.l.l.l.l.l.l.l.l.l.",
"l.l.l.l.l.l.l.l.l.l.l.l.l.l.l.l.l.l.l.w u j 9 ; $ & & , t j 0 3 l.l.l.l.l.l.l.l.l.l.l.l.l.l.l.l.l.l.",
"l.l.l.l.l.l.l.l.l.l.l.l.l.l.l.l.l.l.<.5.$ 6 p g k k k k h , 5 u.l.l.l.l.l.l.l.l.l.l.l.l.l.l.l.l.l.l.",
"l.l.l.l.l.l.l.l.l.l.l.l.l.l.n n N # 2.f.=.h 5 $ & = & & 6 B >.j.;.$ M m n l.l.l.l.l.l.l.l.l.l.l.l.l.",
"l.l.l.l.l.l.l.l.l.l.l.l.l.l.E ^ S +.t.s.p.y.7.:.o.} *.,.7.y.p.y.0.~ Y ^ R l.l.l.l.l.l.l.l.l.l.l.l.l.",
"l.l.l.l.l.l.l.l.l.l.l.l.l.l.P ! Z { a.y.y.s.s.s.s.s.d.d.s.p.y.u.t.O.A ! K l.l.l.l.l.l.l.l.l.l.l.l.l.",
"l.l.l.l.l.l.l.l.l.l.l.l.l.l.P Q P ; :.d.s.y.i.y.y.s.p.y.y.s.s.k.*., I E K l.l.l.l.l.l.l.l.l.l.l.l.l.",
"l.l.l.l.l.l.l.l.l.l.l.l.l.l.P E F 4 4 4.d.s.s.a.s.y.p.s.d.d.s.>.& w K E K l.l.l.l.l.l.l.l.l.l.l.l.l.",
"l.l.l.l.l.l.l.l.l.l.l.l.l.l.P R d p 6 p } -.4.w.y.s.y.w.,.=.[ 5 9 t d E H l.l.l.l.l.l.l.l.l.l.l.l.l.",
"l.l.l.l.l.l.l.l.l.l.l.l.l.l.U U v 7 p t $ & : p ( [ ( 9 & & : t y 7 V E K l.l.l.l.l.l.l.l.l.l.l.l.l.",
"l.l.l.l.l.l.l.l.l.l.l.l.l.l.P E P c r a h h p u 5 : 5 w h h h i 8 a T R K l.l.l.l.l.l.l.l.l.l.l.l.l.",
"l.l.l.l.l.l.l.l.l.l.l.l.l.l.R R I P y 8 y 0 t i p p p u t r r 8 y P R R K l.l.l.l.l.l.l.l.l.l.l.l.l.",
"l.l.l.l.l.l.l.l.l.l.l.l.l.l.U I P I L G b c x 8 r r r y c b C C L R I R K l.l.l.l.l.l.l.l.l.l.l.l.l.",
"l.l.l.l.l.l.l.l.l.l.l.l.l.l.R E R R E E E E E P H H J T R E E E R R R E K l.l.l.l.l.l.l.l.l.l.l.l.l.",
"l.l.l.l.l.l.l.l.l.l.l.l.l.l.C G H H H H H H K K K H J G C J H C F H F H v l.l.l.l.l.l.l.l.l.l.l.l.l.",
"l.l.l.l.l.l.l.l.l.l.l.l.l.l.  l.l.l.l.. l.l.l.l.l.l.l.l.. l.l.l.l.l.l.. l.l.l.l.l.l.l.l.l.l.l.l.l.l.",
"l.l.l.l.l.l.l.l.l.l.l.l.l.l.l.l.l.l.l.l.l.l.l.l.l.l.l.l.l.l.l.l.l.l.l.l.l.l.l.l.l.l.l.l.l.l.l.l.l.l.",
"l.l.l.l.l.l.l.l.l.l.l.l.l.l.l.l.l.l.l.l.l.l.l.l.l.l.l.l.l.l.l.l.l.l.l.l.l.l.l.l.l.l.l.l.l.l.l.l.l.l.",
"l.l.l.l.l.l.l.l.l.l.l.l.l.l.l.l.l.l.l.l.l.l.l.l.l.l.l.l.l.l.l.l.l.l.l.l.l.l.l.l.l.l.l.l.l.l.l.l.l.l.",
"l.l.l.l.l.l.l.l.l.l.l.l.l.l.l.l.l.l.l.l.l.l.l.l.l.l.l.l.l.l.l.l.l.l.l.l.l.l.l.l.l.l.l.l.l.l.l.l.l.l.",
"l.l.l.l.l.l.l.l.l.l.l.l.l.l.l.l.l.l.l.l.l.l.l.l.l.l.l.l.l.l.l.l.l.l.l.l.l.l.l.l.l.l.l.l.l.l.l.l.l.l.",
"l.l.l.l.l.l.l.l.l.l.l.l.l.l.l.l.l.l.l.l.l.l.l.l.l.l.l.l.l.l.l.l.l.l.l.l.l.l.l.l.l.l.l.l.l.l.l.l.l.l.",
"l.l.l.l.l.l.l.l.l.l.l.l.l.l.l.l.l.l.l.l.l.l.l.l.l.l.l.l.l.l.l.l.l.l.l.l.l.l.l.l.l.l.l.l.l.l.l.l.l.l.",
"l.l.l.l.l.l.l.l.l.l.l.l.l.l.l.l.l.l.l.l.l.l.l.l.l.l.l.l.l.l.l.l.l.l.l.l.l.l.l.l.l.l.l.l.l.l.l.l.l.l.",
"l.l.l.l.l.l.l.l.l.l.l.l.l.l.l.l.l.l.l.l.l.l.l.l.l.l.l.l.l.l.l.l.l.l.l.l.l.l.l.l.l.l.l.l.l.l.l.l.l.l."
};
