/* XPM */
static char *result[] = {
/* columns rows colors chars-per-pixel */
"50 50 223 2 ",
"   c #000001",
".  c #120000",
"X  c #000014",
"o  c #00001B",
"O  c #0D011D",
"+  c #10021E",
"@  c #38041B",
"#  c #3F211E",
"$  c #000325",
"%  c #000029",
"&  c #030A2B",
"*  c #090627",
"=  c #160625",
"-  c #1A0626",
";  c #140827",
":  c #1B0A26",
">  c #1D0B28",
",  c #031426",
"<  c #1F1C24",
"1  c #250426",
"2  c #2A0623",
"3  c #240A24",
"4  c #230628",
"5  c #2B0B2A",
"6  c #2C0826",
"7  c #340526",
"8  c #3B0625",
"9  c #360C25",
"0  c #30002A",
"q  c #3D0D29",
"w  c #380A26",
"e  c #261623",
"r  c #391C24",
"t  c #3E1530",
"y  c #2E2A23",
"u  c #2A2526",
"i  c #322621",
"p  c #3D3D20",
"a  c #480000",
"s  c #570000",
"d  c #5C051F",
"f  c #7B0005",
"g  c #68041A",
"h  c #7E081B",
"j  c #6B111F",
"k  c #711519",
"l  c #5A370F",
"z  c #48271C",
"x  c #4D371B",
"c  c #583316",
"v  c #653D0B",
"b  c #673F07",
"n  c #613113",
"m  c #440623",
"M  c #430D2A",
"N  c #470724",
"B  c #550A25",
"V  c #580726",
"C  c #4B1833",
"Z  c #551A35",
"A  c #571431",
"S  c #6E0221",
"D  c #6B0B24",
"F  c #620722",
"G  c #730A22",
"H  c #7D0D21",
"J  c #7A0323",
"K  c #67142C",
"L  c #7B142A",
"P  c #74142E",
"I  c #661732",
"U  c #7C1D35",
"Y  c #761C38",
"T  c #5F213D",
"R  c #4C3025",
"E  c #69283A",
"W  c #71283B",
"Q  c #3B4320",
"!  c #4B411F",
"~  c #56491F",
"^  c #6B4409",
"/  c #66420C",
"(  c #795603",
")  c #6C5310",
"_  c #7D620E",
"`  c #766919",
"'  c #7F771A",
"]  c #584920",
"[  c #604028",
"{  c #6A2641",
"}  c #742946",
"|  c #7D2D49",
" . c #8C0004",
".. c #860008",
"X. c #990000",
"o. c #8C0416",
"O. c #84051B",
"+. c #8D0C1E",
"@. c #810518",
"#. c #940D1D",
"$. c #9D0A1A",
"%. c #990519",
"&. c #AB0001",
"*. c #AC0113",
"=. c #A30B1A",
"-. c #AC0B1A",
";. c #AA0717",
":. c #B40B19",
">. c #BB0B1B",
",. c #B60515",
"<. c #830E21",
"1. c #880A21",
"2. c #980C21",
"3. c #8D192D",
"4. c #851629",
"5. c #961424",
"6. c #97192C",
"7. c #911B20",
"8. c #851D32",
"9. c #8E1A32",
"0. c #901234",
"q. c #B50521",
"w. c #AA1828",
"e. c #B81823",
"r. c #A31F34",
"t. c #8C2239",
"y. c #8B2035",
"u. c #95243B",
"i. c #9B293F",
"p. c #9A3A3F",
"a. c #B93439",
"s. c #C00000",
"d. c #C20A1B",
"f. c #CB0A1C",
"g. c #D5071B",
"h. c #D20B1E",
"j. c #DB0B1E",
"k. c #D80418",
"l. c #D01319",
"z. c #EA0005",
"x. c #F10000",
"c. c #E4051D",
"v. c #EA031B",
"b. c #E4041B",
"n. c #F30018",
"m. c #DD0D20",
"M. c #CF1A29",
"N. c #C91526",
"B. c #D41D2F",
"V. c #ED0426",
"C. c #E50C21",
"Z. c #E90C22",
"A. c #F30629",
"S. c #EB1127",
"D. c #EA1529",
"F. c #F71A36",
"G. c #CB262E",
"H. c #D12A39",
"J. c #E9293B",
"K. c #EE343D",
"L. c #F1313E",
"P. c #F6273E",
"I. c #856404",
"U. c #8D760E",
"Y. c #957D09",
"T. c #86761A",
"R. c #927D10",
"E. c #942F48",
"W. c #952B43",
"Q. c #883C48",
"!. c #94314C",
"~. c #9C334D",
"^. c #8F3550",
"/. c #993955",
"(. c #842C47",
"). c #A3384E",
"_. c #A23853",
"`. c #A33D5A",
"'. c #A03752",
"]. c #C83E40",
"[. c #DE3645",
"{. c #ED3443",
"}. c #E13946",
"|. c #F93A4A",
" X c #924853",
".X c #BC6C6C",
"XX c #CE535E",
"oX c #D8414A",
"OX c #F1414D",
"+X c #EC4F59",
"@X c #FD4756",
"#X c #F54856",
"$X c #F6545C",
"%X c #FE525D",
"&X c #FA5760",
"*X c #FA5E66",
"=X c #ED5E66",
"-X c #D9626B",
";X c #FF656D",
":X c #F5666A",
">X c #FE6A73",
",X c #EB7B7C",
"<X c #FC7176",
"1X c #FF7379",
"2X c #F7797D",
"3X c #9C8308",
"4X c #9C920E",
"5X c #8D891D",
"6X c #9A9715",
"7X c #A99E0A",
"8X c #B6B10F",
"9X c #DD8988",
"0X c #EA8A87",
"qX c #FD8285",
"wX c #FB8887",
"eX c #FE9A9A",
"rX c #FE9594",
"tX c #F5A89E",
"yX c #FAA8A1",
"uX c #F8BCB2",
"iX c #F0CBBB",
"pX c #F1D9C9",
"aX c None",
/* pixels */
"aXaXaXaXaXaXaXaXaXaXaXaXaXaXaXaXaXaXaXaXaXaXaXaXaXaXaXaXaXaXaXaXaXaXaXaXaXaXaXaXaXaXaXaXaXaXaXaXaXaX",
"aXaXaXaXaXaXaXaXaXaXaXaXaXaXaXaXaXaXaXaXaXaXaXaXaXaXaXaXaXaXaXaXaXaXaXaXaXaXaXaXaXaXaXaXaXaXaXaXaXaX",
"aXaXaXaXaXaXaXaXaXaXaXaXaXaXaXaXaXaXaXaXaXaXaXaXaXaXaXaXaXaXaXaXaXaXaXaXaXaXaXaXaXaXaXaXaXaXaXaXaXaX",
"aXaXaXaXaXaXaXaXaXaXaXaXaXaXaXaXaXaXaXaXaXaXaXaXaXaXaXaXaXaXaXaXaXaXaXaXaXaXaXaXaXaXaXaXaXaXaXaXaXaX",
"aXaXaXaXaXaXaXaXaXaXaXaXaXaXaXaXaXaXaXaXaXaXaXaXaXaXaXaXaXaXaXaXaXaXaXaXaXaXaXaXaXaXaXaXaXaXaXaXaXaX",
"aXaXaXaXaXaXaXaXaXaXaXaXaXaXaXaXaXaXaXaXaXaXaXaXaXaXaXaXaXaXaXaXaXaXaXaXaXaXaXaXaXaXaXaXaXaXaXaXaXaX",
"aXaXaXaXaXaXaXaXaXaXaXaXaXaXaXaXaXaXaXaXaXaXaXaXaXaXaXaXaXaXaXaXaXaXaXaXaXaXaXaXaXaXaXaXaXaXaXaXaXaX",
"aXaXaXaXaXaXaXaXaXaXaXaXaXaXaXaXaXaXaXaXaXaXaXaXaXaXaXaXaXaXaXaXaXaXaXaXaXaXaXaXaXaXaXaXaXaXaXaXaXaX",
"aXaXaXaXaXaXaXaXaXaXaXaXaXaXaXaXaXaXaXaXaXaXaXaXaXaXaX; - aXaXaXaXaXaXaXaXaXaXaXaXaXaXaXaXaXaXaXaXaX",
"aXaXaXaXaXaXaXaXaXaXaXaXaXaXaXaXaXaXaXaXaXaXaXaXaXaXaX= - aXaXaXaXaXaXaXaXaXaXaXaXaXaXaXaXaXaXaXaXaX",
"aXaXaXaXaXaXaXaXaXaXaXaXaXaXaXaXaXaXaXaXaXaXaXaXaXaXaXaXaX- ; aXaXaXaXaXaXaXaXaXaXaXaXaXaXaXaXaXaXaX",
"aXaXaXaXaXaXaXaXaXaXaXaXaXaXaXaXaXaXaXaXaXaXaXaXaXaXaXaXaX- - aXaXaXaXaXaXaXaXaXaXaXaXaXaXaXaXaXaXaX",
"aXaXaXaXaXaXaXaXaXaXaXaXaXaXaXaXaXaXaX% % % % % aXaXaXaXaX- ; aXaXaXaXaXaXaXaXaXaXaXaXaXaXaXaXaXaXaX",
"aXaXaXaXaXaXaXaXaXaXaXaXaXaXaXaXaXaX: > > e u y u aXaXaXaX= - aXaXaXaXaXaXaXaXaXaXaXaXaXaXaXaXaXaXaX",
"aXaXaXaXaXaXaXaXaXaXaXaXaXaXaXaXaX1 z R z ] T.5X` aXaXaXaX: aXaXaXaXaXaXaXaXaXaXaXaXaXaXaXaXaXaXaXaX",
"aXaXaXaXaXaXaXaXaXaXaXaXaXaXaXaX% r c v v ( 7X8X5Xu % ; ; aXaXaXaXaXaXaXaXaXaXaXaXaXaXaXaXaXaXaXaXaX",
"aXaXaXaXaXaXaXaXaXaXaXaXaXaXaX3 r c l ( I.U.4X6XT.x - * * aXaXaXaXaXaXaXaXaXaXaXaXaXaXaXaXaXaXaXaXaX",
"aXaXaXaXaXaXaX- = aXaXaXaXaX% r c b ^ I.Y.Y.` Q x v z , % % o X X aXaXaXaXaXaXaXaXaXaXaXaXaXaXaXaXaX",
"aXaXaXaXaXaXaX- = aXaXaXaXe # c b ( I.U.U.T.[ 0 w l c j J 0.u.).Q.E aXaXaXaXaXaXaXaXaXaXaXaXaXaXaXaX",
"aXaXaXaXaXaXaXaXaX- = % = z l ^ ( I.Y.5X) p I U Z e k ;.M.J.+X:X-X X  aXaXaXaXaXaXaXaXaXaXaXaXaXaXaX",
"aXaXaXaXaXaXaXaXaX= = % : z l / ) _ R.T.! 0 0.r.P 2 g ;.M.J.#X;X;XXXW t aXaXaXaXaXaXaXaXaXaXaXaXaXaX",
"aXaXaXaXaXaXaXaXaXaXaXaXaXe r i i p ~ ~ R S %.*. .s a g L 6.H.{.@X:X-X X, aXaXaXaXaXaXaXaXaXaXaXaXaX",
"aXaXaXaXaXaXaXaXaXaXaXaXaXaX2 0 0 1 % 8 S 5.e.G.a.p.W q @ g r.}.%X>X<XXXK . aXaXaXaXaXaXaXaXaXaXaXaX",
"aXaXaXaXaXaXaXaXaXaXaXaX- N F J O.h V g  .e.oX=X,X9X.X7.X.s.[.2XwX1X$X{.N.o.N aXaXaXaXaXaXaXaXaXaXaX",
"aXaXaXaXaXaXaXaXaXaXaX% 4 V <.#.=.$.<.+.&.G.+X1XrXyX0XH.l.{.<XeXeX1XP.A.Z.>.B & aXaXaXaXaXaXaXaXaXaX",
"aXaXaXaXaXaXaXaXaXaXaX$ 1 K 3.5.2.$.=.e.M.K.|.$X1XqXqX,X0XtXyXrX2X$XD.v.c.q.N $ aXaXaXaXaXaXaXaXaXaX",
"aXaXaXaXaXaXaXaXaXaXaXo 4 I u.y.4.o.,.M.{.|.J.D.D.|.<XeXuXpXiXwXF.S.C.k.d.2.m & aXaXaXaXaXaXaXaXaXaX",
"aXaXaXaXaXaXaXaXaXaXaXo 1 W !.W.L o.*.N.H.L.S.z.x.V.$XqXyXuXtX:Xx.x.c.g.q.1.8 $ aXaXaXaXaXaXaXaXaXaX",
"aXaXaXaXaXaXaXaXaXaXaXX 5 } /.E.4.o.%.-.e.l.j.C.c.C.{.@X$X*X$XK.v.v.C.f.=.H 8 $ aXaXaXaXaXaXaXaXaXaX",
"aXaXaXaXaXaXaXaXaXaXaXX 5 | `.).4...%.;.*.,.f.m.c.b.V.A.A.n.n.b.h.j.m.>.$.G w $ aXaXaXaXaXaXaXaXaXaX",
"aXaXaXaXaXaXaXaXaXaXaXX 5 (.`.~.L ..$.-.=.-.>.f.j.Z.S.D.S.S.C.h.d.>.-.=.1.D 5 & aXaXaXaXaXaXaXaXaXaX",
"aXaXaXaXaXaXaXaXaXaXaXaX4 { ^.!.y.3.$.$.=.=.-.>.f.m.c.c.c.c.j.f.:.-.$.1.G B 6 $ aXaXaXaXaXaXaXaXaXaX",
"aXaXaXaXaXaXaXaXaXaXaXaXaXt Z | !.E.3.o.=.=.=.-.>.f.j.Z.c.g.f.d.>.:.=.H N 3 aXaXaXaXaXaXaXaXaXaXaXaX",
"aXaXaXaXaXaXaXaXaXaXaXaXaXaXo { /.'.8.h %.=.=.=.-.>.h.C.h.d.>.>.>.:.$.D 4 $ aXaXaXaXaXaXaXaXaXaXaXaX",
"aXaXaXaXaXaXaXaXaXaXaXaXaXaX+ } `._.8.f O.5.$.=.-.-.>.f.f.-.=.:.-.=.1.D 4 $ aXaXaXaXaXaXaXaXaXaXaXaX",
"aXaXaXaXaXaXaXaXaXaXaXaXaXaX= { /.~.8.h h <.#.=.=.=.:.>.:.-.=.;.$.#.H B > $ aXaXaXaXaXaXaXaXaXaXaXaX",
"aXaXaXaXaXaXaXaXaXaXaXaXaXaXaXZ E (.E.W.4.h +.#.#.#.$.;.,.:.:.-.$.<.B w aXaXaXaXaXaXaXaXaXaXaXaXaXaX",
"aXaXaXaXaXaXaXaXaXaXaXaXaXaXaXaX+ T /./.t.h O.H H <.+.=.:.>.d.:.$.D - aXaXaXaXaXaXaXaXaXaXaXaXaXaXaX",
"aXaXaXaXaXaXaXaXaXaXaXaXaXaXaXaXX Z !.).u.3.<.<.j F L 6.w.>.:.-.1.V * aXaXaXaXaXaXaXaXaXaXaXaXaXaXaX",
"aXaXaXaXaXaXaXaXaXaXaXaXaXaXaXaX$ A t.W.u.t.6.O.V 3 I t.r.w.=.$.H B ; aXaXaXaXaXaXaXaXaXaXaXaXaXaXaX",
"aXaXaXaXaXaXaXaXaXaXaXaXaXaXaXaX$ M K 8.W 8.L j m $ C Y 8.<.O.G F M ; aXaXaXaXaXaXaXaXaXaXaXaXaXaXaX",
"aXaXaXaXaXaXaXaXaXaXaXaXaXaXaXaXaX5 q q q q q w 6 aX5 8 M M m 8 w 5 aXaXaXaXaXaXaXaXaXaXaXaXaXaXaXaX",
"aXaXaXaXaXaXaXaXaXaXaXaXaXaXaXaXaX& $ $ $ % $ $ & aXaX$ $ $ $ $ $ & aXaXaXaXaXaXaXaXaXaXaXaXaXaXaXaX",
"aXaXaXaXaXaXaXaXaXaXaXaXaXaXaXaXaXaXaXaXaXaXaXaXaXaXaXaXaXaXaXaXaXaXaXaXaXaXaXaXaXaXaXaXaXaXaXaXaXaX",
"aXaXaXaXaXaXaXaXaXaXaXaXaXaXaXaXaXaXaXaXaXaXaXaXaXaXaXaXaXaXaXaXaXaXaXaXaXaXaXaXaXaXaXaXaXaXaXaXaXaX",
"aXaXaXaXaXaXaXaXaXaXaXaXaXaXaXaXaXaXaXaXaXaXaXaXaXaXaXaXaXaXaXaXaXaXaXaXaXaXaXaXaXaXaXaXaXaXaXaXaXaX",
"aXaXaXaXaXaXaXaXaXaXaXaXaXaXaXaXaXaXaXaXaXaXaXaXaXaXaXaXaXaXaXaXaXaXaXaXaXaXaXaXaXaXaXaXaXaXaXaXaXaX",
"aXaXaXaXaXaXaXaXaXaXaXaXaXaXaXaXaXaXaXaXaXaXaXaXaXaXaXaXaXaXaXaXaXaXaXaXaXaXaXaXaXaXaXaXaXaXaXaXaXaX",
"aXaXaXaXaXaXaXaXaXaXaXaXaXaXaXaXaXaXaXaXaXaXaXaXaXaXaXaXaXaXaXaXaXaXaXaXaXaXaXaXaXaXaXaXaXaXaXaXaXaX",
"aXaXaXaXaXaXaXaXaXaXaXaXaXaXaXaXaXaXaXaXaXaXaXaXaXaXaXaXaXaXaXaXaXaXaXaXaXaXaXaXaXaXaXaXaXaXaXaXaXaX",
};
