/* XPM */
static char *result[] = {
/* columns rows colors chars-per-pixel */
"50 50 216 2 ",
"   c #000101",
".  c #0C0100",
"X  c #000A0A",
"o  c #120101",
"O  c #1A0101",
"+  c #370202",
"@  c #2C0000",
"#  c #440000",
"$  c #510D0D",
"%  c #7A0000",
"&  c #652020",
"*  c #8E0000",
"=  c #9E0000",
"-  c #940101",
";  c #A50202",
":  c #AE0000",
">  c #AA0A0A",
",  c #B40000",
"<  c #BD0000",
"1  c #B50B0C",
"2  c #BD0B0C",
"3  c #AE1C1C",
"4  c #BD1515",
"5  c #B21B1C",
"6  c #BE1D1E",
"7  c #B41414",
"8  c #BD1F20",
"9  c #AB2627",
"0  c #B32424",
"q  c #BC2324",
"w  c #B52D2E",
"e  c #BC292A",
"r  c #BD2729",
"t  c #AD3536",
"y  c #B43232",
"u  c #B43C3D",
"i  c #BC3739",
"p  c #C30000",
"a  c #CB0000",
"s  c #CD0809",
"d  c #D30000",
"f  c #DC0000",
"g  c #D9040C",
"h  c #C51717",
"j  c #DA1517",
"k  c #E50000",
"l  c #E70404",
"z  c #E51519",
"x  c #F6070A",
"c  c #C51B21",
"v  c #DB2B2C",
"b  c #C43638",
"n  c #D53739",
"m  c #CE2929",
"M  c #E5292B",
"N  c #E62D32",
"B  c #E5393B",
"V  c #F9413F",
"C  c #B13F44",
"Z  c #E63F42",
"A  c #964E50",
"S  c #B44446",
"D  c #BE4345",
"F  c #BD4649",
"G  c #BA4C4D",
"H  c #BC5254",
"J  c #BE5B5D",
"K  c #B45B5C",
"L  c #AF5252",
"P  c #9A787F",
"I  c #BE6467",
"U  c #BE6B6D",
"Y  c #B66D6F",
"T  c #B96E71",
"R  c #AD7778",
"E  c #BE7B7D",
"W  c #B97476",
"Q  c #C5484A",
"!  c #D9494B",
"~  c #C75255",
"^  c #DD5354",
"/  c #D85A5B",
"(  c #E54445",
")  c #E4474A",
"_  c #E54A4A",
"`  c #F74C4D",
"'  c #E65254",
"]  c #E55B5B",
"[  c #E85D5E",
"{  c #E4605F",
"}  c #ED5F61",
"|  c #C56B6D",
" . c #DA6A6B",
".. c #C97678",
"X. c #D97474",
"o. c #E56466",
"O. c #E66769",
"+. c #E66B6C",
"@. c #E57172",
"#. c #E57B7C",
"$. c #F8797A",
"%. c #EF6F71",
"&. c #B67F81",
"*. c #C07E81",
"=. c #E67E80",
"-. c #BE8385",
";. c #B28B8D",
":. c #BB878A",
">. c #B98E92",
",. c #AA9596",
"<. c #B49C9D",
"1. c #B99699",
"2. c #A88D8D",
"3. c #B99DA1",
"4. c #A29CA3",
"5. c #ACABAC",
"6. c #ACA5A7",
"7. c #BEA2A5",
"8. c #BEA6A9",
"9. c #B4ABAD",
"0. c #BCAAAD",
"q. c #B2A3A5",
"w. c #B3ADB2",
"e. c #BEADB0",
"r. c #ACB5B9",
"t. c #B4B3B4",
"y. c #BEB1B4",
"u. c #B4B7B9",
"i. c #BDB6B9",
"p. c #B5BABC",
"a. c #BEB9BD",
"s. c #ADAEB1",
"d. c #C7888A",
"f. c #D78688",
"g. c #C99496",
"h. c #D59496",
"j. c #D68F90",
"k. c #E68485",
"l. c #E58C8D",
"z. c #EA8787",
"x. c #E68F91",
"c. c #E69495",
"v. c #E69C9D",
"b. c #E79799",
"n. c #F69193",
"m. c #E6A09F",
"M. c #D89FA1",
"N. c #E69FA0",
"B. c #C5A8AA",
"V. c #D7A9AB",
"C. c #C3AEB1",
"Z. c #D8AFB1",
"A. c #C1B6BA",
"S. c #C6B6B9",
"D. c #D9B6B8",
"F. c #E5A3A4",
"G. c #E6A7A9",
"H. c #E6ABAC",
"J. c #E6AFB1",
"K. c #E6B3B5",
"L. c #E6B7B8",
"P. c #E6BBBC",
"I. c #E8B3B4",
"U. c #F7A0A3",
"Y. c #B6BEC1",
"T. c #BCBEC1",
"R. c #D7BFC0",
"E. c #E6BEC0",
"W. c #B6C2C5",
"Q. c #BDC2C5",
"!. c #BDC6CA",
"~. c #BDCACD",
"^. c #B6C9CC",
"/. c #BDCDD1",
"(. c #BED2D6",
"). c #C2C1C3",
"_. c #C3CACC",
"`. c #C8C5C8",
"'. c #DCC3C5",
"]. c #D7CBCD",
"[. c #C2CED2",
"{. c #C9CFD2",
"}. c #C6D2D5",
"|. c #CAD3D6",
" X c #C9D8DB",
".X c #D1D3D5",
"XX c #DDD3D5",
"oX c #D4DDDE",
"OX c #DBDDDE",
"+X c #D8D6D8",
"@X c #E5C3C4",
"#X c #E6C7C9",
"$X c #E6CCCD",
"%X c #E9C1C3",
"&X c #E8CFD0",
"*X c #E4D3D4",
"=X c #E6D7D8",
"-X c #E5DBDC",
";X c #ECD7D9",
":X c #F5CBCB",
">X c #D9DFE0",
",X c #CBDDE1",
"<X c #E4DFE0",
"1X c #DDE2E4",
"2X c #D9E6E8",
"3X c #DFEFF1",
"4X c #E4E3E4",
"5X c #E4E7E8",
"6X c #E4EBEC",
"7X c #EBE7E9",
"8X c #F6E8E9",
"9X c #E4EFF0",
"0X c #E5F2F3",
"qX c #E6F7F8",
"wX c #F9FBFC",
"eX c #464646",
/* pixels */
"eXeXeXeXeXeXeXeXeXeXeXeXeXeXeXeXeXeXeXeXeXeXeXeXeXeXeXeXeXeXeXeXeXeXeXeXeXeXeXeXeXeXeXeXeXeXeXeXeXeX",
"eXeXeXeXeXeXeXeXeXeXeXeXeXeXeXeXeXeXeXeXeXeXeXeXeXeXeXeXeXeXeXeXeXeXeXeXeXeXeXeXeXeXeXeXeXeXeXeXeXeX",
"eXeXeXeXeXeXeXeXeXeXeXeXeXeXeXeXeXeXeXeXeXeXeXeXeXeXeXeXeXeXeXeXeXeXeXeXeXeXeXeXeXeXeXeXeXeXeXeXeXeX",
"eXeXeXeXeXeXeXeXeXeXeXeXeXeXeXeXeXeXeXeXeXeXeXeXeXeXeX: eXeXeXeXeXeXeXeXeXeXeXeXeXeXeXeXeXeXeXeXeXeX",
"eXeXeXeXeXeXeXeXeXeXeXeXeXeXeXeXeXeXeXeXeXeXeXeXeX; 7 j eXeXeXeXeXeXeXeXeXeXeXeXeXeXeXeXeXeXeXeXeXeX",
"eXeXeXeXeXeXeXeXeXeXeXeXeXeXeXeXeXeXeXeXeXeX1X4X`.y < < c eXeXeXeXeXeXeXeXeXeXeXeXeXeXeXeXeXeXeXeXeX",
"eXeXeXeXeXeXeXeXeXeXeXeXeXeXeXeX].j.[ N x U.8XwX7X, < ..&XwX5X=XP. .eXeXeXeXeXeXeXeXeXeXeXeXeXeXeXeX",
"eXeXeXeXeXeXeXeXeXeXeXeXeXeX>X7XwX8X;X%XH.%.+.%X.X! m.;X*XK.v.z.%.` N v eXeXeXeXeXeXeXeXeXeXeXeXeXeX",
"eXeXeXeXeXeXeXeXeXeXeXf M $.=.%.k.F.I.L.%X#XP.L.'.E.&XJ.v.m.F.G.P.$X-X8X8X<X2XeXeXeXeXeXeXeXeXeXeXeX",
"eXeXeXeXeXeXeXeXeXeX] $.z.c.G.I.I.G.N.H.F.J.P.#X@X#XP.L.P.%XL.E.L.H.F.J.E.;X8XXXeXeXeXeXeXeXeXeXeXeX",
"eXeXeXeXeXeXeXeX>X8X7X0X9X4X$XK.G.P.E.J.L.I.I.J.L.K.K.K.K.H.K.m.m.L.H.k.V l l ` } k eXeXeXeXeXeXeXeX",
"eXeXeXeXeXeXeX1XwX-X#Xv.O.Z +.G.%XG.b.P.G.I.J.J.K.K.J.K.J.L.m.@XK.c.K.;X1X-XL.l.] ` f eXeXeXeXeXeXeX",
"eXeXeXeXeXeXN.U.' k k B c.*X4X@Xz.F.$Xc.L.J.I.H.L.H.I.J.J.G.@Xz.P.&Xx.' k.@X4X0X5X-X:XK.eXeXeXeXeXeX",
"eXeXeXeXeXf l f n j.@X6X6X@X+.' %X=X#.L.P.v.L.H.J.H.I.F.%Xv.H.*X+.v.4X=Xl.k k #.D.4X3XwX<XeXeXeXeXeX",
"eXeXeXeXd [ d.A.|.2X4XL._ k v.5X&XB I.-X] =Xk.#Xx.@Xl.$X@.<XO.H.7X#.N P.9X<XF.M d d d.Z.7X,XeXeXeXeX",
"eXeXeXeX'._.(. X].V.M k #.-X0XG.l L.5XM P.#X@.-XO.-Xo.;Xk.F.4Xl G.0XJ.l O.*X9X4XZ./ p p n j.eXeXeXeX",
"eXeXeX!. X(.y.d.d k { @X0X4X+.k %X0Xo.+.0X[ H.*XB 5XO.I.-Xl ;X-Xl c.0X*X( l c.-X3XOXC.| , p , eXeXeX",
"eXeXeX|.e.U p a v Z.5X0X@Xk k $X0Xl.k 4X&Xk -X@Xz 9Xl.+.0X@.' 0X%Xl x.9X4Xx.k z V.OX,X[.R.&.a eXeXeX",
"eXeX>.| , < < d.+X3X1XF.f M *XqXH.k L.0X@._ 9XF.l 6XJ.k 4X&Xl H.0XH.l k.7X0XL.k k / C.{.(./.R.>.eXeX",
"eXeX, p < U S. X2X].@.k ' =XqXP.k @.0X*Xk v.0Xk.M 5X@Xk P.9X+.l ;X9Xc.l #.4X0X*X .d a ..T.(.(.^.eXeX",
"eXeX< ~ B.~.(.}.Z.v f +.-X0X$Xk k *X0Xl.k #X0X[ B 7X=Xk x.9X%Xk #.5X5Xk.k @.=X3XOXj.a < 2 >._.~.eXeX",
"eXeX:.Q.(./.Q.d.d f X.-X9X-X' k H.0X&Xl _ 4X4XN _ 4X4Xz _ 4X5X@.l L.9X<XO.k o.*X1X,XB.b < p F B.eXeX",
"eXeX}./.[.i.I p a X.OX5X4X@.k @.4X6Xv.k c.0X=Xk ' 4X5Xo.l #X9XL.k Z -X6XXX( k ^ ].oX}.T.| < p p eXeX",
"eXeX[.~.1.8 < < ...XoX1Xl.f l $X9X=XB l P.0X@Xk ' 4X7Xk.l F.9X4Xo.k l.5X4X'.j f n S.[./.!.:.< , eXeX",
"eXeXp.d.< < < &.[.|.oXh.f k N.5X6XF.k ) -X9XK.k ] -X9XF.k +.4X6XK.k k P.5X1XV.d a c C././.(.8.C eXeX",
"eXeXK p 4 < d.[.!.}.B.f f  .4X5X-X) k k.5X6XN.k ] <X6XL.k k &X6XOX' k ! XX>XoXg.p < < B./.T. Xs.eXeX",
"eXeX: p < >./.!./.C.p s d D.1X2XG.k k L.5X5Xk.k ] 4X6X@Xk k H.5X4XF.f f f.oX.X{...< 2 < 3./.[.Y.eXeX",
"eXeX9 p g./.!.~.a.6 p p d.oXoX+X! f v XX1X4XO.k ] -X5X*XM f @.4X4XXXn d d S.|._.!.J < 4 p 1.[.eXeXeX",
"eXeXeX;.(.!.~.Q.F < < Q `.{. XV.d d X.>X>X+X! f ' OX4X-X^ f v ].1XoXh.d a Q ).!./.T.i < 2 p <.eXeXeX",
"eXeXeX5.}.~.~.I < e < 0./.~._.~ a d M.>XoX].f f ^ +X>XOXX.d d V.oX.X`.h h p :./.T./.y.< < < C eXeXeX",
"eXeXeX,.T.~.E , e < E /.!./.7.p h p S. XoXZ.d d Q .X.X Xf.d d ..|._.[.-., h < e./.Q./.B., F A eXeXeX",
"eXeXeXR E 3., 4 < i T.~.~.~.J < < ~ _._.}.g.a a Q `.{.[.g.p p b Q._.~.a.< 4 p H !.!.!.^.R ,.&.eXeXeX",
"eXeXeXeXQ ;., 1 < 7./.!./.0.< q < :./.)./.&.p < Q )._.~.B.< 6 p 8.[.Q.~..., e < :./.W.Y.R w.eXeXeXeX",
"eXeXeXeXQ t.;., Y ~.~.!.~.I < q p 0./.!.Q.| < < D Q.!.~.A.< 6 , E ~.!.~.y.< h < , 0.W.Y t r.eXeXeXeX",
"eXeXeXeXt t.p.: ;.^.W./.e.< 4 < u ).~.~.Q.G < < D ).~.~.A.e p < Q Q.~.Q.~.U < e , ;.s.: S 6.eXeXeXeX",
"eXeXeXeXu A.u.w S 9.Y.Q.Y < r < E ~.Q.~.a.4 < < D T.~.Q.Q.G < 6 < 0./.).~.8., , G 6.t., K 4.eXeXeXeX",
"eXeXeXeXeXA.r.u , K r.t.i , q , 7.~.Q.~.0.p 6 p D Q.!.Q._.U < r < :.~.T.W.t.0 : <.Y.9.7 C eXeXeXeXeX",
"eXeXeXeXeXr.R.u , W p.s.;., , 7 p.!.Q.^.1., r < D T.!.Q.~.-.< 8 , H Y.p.t.&.: , <.r.9.e ; eXeXeXeXeX",
"eXeXeXeXeXeXw.G , Y p.p.u.y , 5 9.p.p.W.>.p e , D T.W.T.^.>.< 0 , K s.s.q., , , <.r.e.9 eXeXeXeXeXeX",
"eXeXeXeXeXeXeXG , Y p.u.9.y , , 9 K R <.R ; 0 , u w.u.9.w.R , 5 , 1.t.w.9.u , , 3.Y.w.eXeXeXeXeXeXeX",
"eXeXeXeXeXeXeXeX, T p.u.t.y , 1 : , : , $   + # $ A S t 3 : , 1 < <.t.t.9.y , , q.r.eXeXeXeXeXeXeXeX",
"eXeXeXeXeXeXeXeXeXT _.p.9.y , , 3 0 0 3 +       X % , : , : < 1 , <.t.t.9.w , p ,.eXeXeXeXeXeXeXeXeX",
"eXeXeXeXeXeXeXeXeXeX5.Q.S.y , 1 , , , > X O O @ X & 0 3 5 > , 1 , <.t.t.9.b < 3 eXeXeXeXeXeXeXeXeXeX",
"eXeXeXeXeXeXeXeXeXeXeXeX9.b p , : : , *   o   o   # : , , : , 1 , <.u.).y.y eXeXeXeXeXeXeXeXeXeXeXeX",
"eXeXeXeXeXeXeXeXeXeXeXeXeXeX: , < , , %   o   .   . = , , : , 1 p B.p.6.eXeXeXeXeXeXeXeXeXeXeXeXeXeX",
"eXeXeXeXeXeXeXeXeXeXeXeXeXeXeXeX; : a *   O         ; , , < < , : 2.eXeXeXeXeXeXeXeXeXeXeXeXeXeXeXeX",
"eXeXeXeXeXeXeXeXeXeXeXeXeXeXeXeXeXeXeX%   . . o .   - > > = eXeXeXeXeXeXeXeXeXeXeXeXeXeXeXeXeXeXeXeX",
"eXeXeXeXeXeXeXeXeXeXeXeXeXeXeXeXeXeXeXeXeXeXeXeXeXeXeXeXeXeXeXeXeXeXeXeXeXeXeXeXeXeXeXeXeXeXeXeXeXeX",
"eXeXeXeXeXeXeXeXeXeXeXeXeXeXeXeXeXeXeXeXeXeXeXeXeXeXeXeXeXeXeXeXeXeXeXeXeXeXeXeXeXeXeXeXeXeXeXeXeXeX",
"eXeXeXeXeXeXeXeXeXeXeXeXeXeXeXeXeXeXeXeXeXeXeXeXeXeXeXeXeXeXeXeXeXeXeXeXeXeXeXeXeXeXeXeXeXeXeXeXeXeX"
};
