/* XPM */
static char *result[] = {
/* columns rows colors chars-per-pixel */
"50 50 225 2 ",
"   c #000000",
".  c #0C0000",
"X  c #030C07",
"o  c #040E08",
"O  c #0D060A",
"+  c #110004",
"@  c #05120B",
"#  c #09150F",
"$  c #0B1B13",
"%  c #081710",
"&  c #171B17",
"*  c #14231B",
"=  c #16291F",
"-  c #0F2118",
";  c #192B22",
":  c #1C3528",
">  c #243F33",
",  c #1F4230",
"<  c #224634",
"1  c #264A38",
"2  c #2A533D",
"3  c #2C5842",
"4  c #315F43",
"5  c #386E51",
"6  c #7B764F",
"7  c #417F60",
"8  c #616B63",
"9  c #4B6458",
"0  c #AE0000",
"q  c #B40000",
"w  c #BC0101",
"e  c #B40A00",
"r  c #B5030A",
"t  c #A81807",
"y  c #B51804",
"u  c #B21913",
"i  c #B21813",
"p  c #B42704",
"a  c #B3231C",
"s  c #B63E00",
"d  c #B91E34",
"f  c #C70001",
"g  c #EA0000",
"h  c #9F7900",
"j  c #B76C00",
"k  c #B77500",
"l  c #97543B",
"z  c #BF602A",
"x  c #B4473C",
"c  c #CA7300",
"v  c #906E52",
"b  c #B36D53",
"n  c #A57560",
"m  c #DD5A49",
"M  c #068427",
"N  c #3E9932",
"B  c #519528",
"V  c #538D38",
"C  c #4B9736",
"Z  c #56943D",
"A  c #549A37",
"S  c #4D8F21",
"D  c #4DA63D",
"F  c #0C974F",
"G  c #299E4D",
"H  c #2FA555",
"J  c #2DAC65",
"K  c #3DB273",
"L  c #3DAF73",
"P  c #5A9C43",
"I  c #579743",
"U  c #5CA249",
"Y  c #58A246",
"T  c #4EA64D",
"R  c #63A854",
"E  c #6EB556",
"W  c #77B458",
"Q  c #73A054",
"!  c #48936B",
"~  c #4C9C75",
"^  c #4D9674",
"/  c #529C76",
"(  c #529E79",
")  c #5D9B75",
"_  c #448566",
"`  c #779A78",
"'  c #6F9476",
"]  c #4DA37A",
"[  c #4DA57A",
"{  c #54A37C",
"}  c #55A97F",
"|  c #53A279",
" . c #73B169",
".. c #729947",
"X. c #AA8700",
"o. c #AC9400",
"O. c #AE9D01",
"+. c #B79C01",
"@. c #B68300",
"#. c #AEA400",
"$. c #B3A500",
"%. c #B5AD00",
"&. c #BBAC00",
"*. c #B9A200",
"=. c #BAB300",
"-. c #BFBA00",
";. c #B5B300",
":. c #BDA411",
">. c #BA8A36",
",. c #C59201",
"<. c #C5BC01",
"1. c #D0B900",
"2. c #CAC500",
"3. c #C7C000",
"4. c #D3CD00",
"5. c #D5CA00",
"6. c #D8D200",
"7. c #E1DD01",
"8. c #E4C800",
"9. c #F1EB01",
"0. c #9A9A5B",
"q. c #B39E4E",
"w. c #91B157",
"e. c #A7B34B",
"r. c #ADAB51",
"t. c #B4AB58",
"y. c #ADBD55",
"u. c #B2B55D",
"i. c #B7B954",
"p. c #AFAE4F",
"a. c #8ABB6F",
"s. c #A8BD66",
"d. c #B3BC62",
"f. c #BBB868",
"g. c #AE8875",
"h. c #E08959",
"j. c #E49867",
"k. c #C9B86A",
"l. c #D3B774",
"z. c #C99A58",
"x. c #B6C15C",
"c. c #B2C156",
"v. c #AFC058",
"b. c #8AC469",
"n. c #95CD73",
"m. c #9ACB7B",
"M. c #99D176",
"N. c #9AD376",
"B. c #8CCA70",
"V. c #A2DF7D",
"C. c #ACC166",
"Z. c #A2E07E",
"A. c #D2C474",
"S. c #6E9681",
"D. c #57AA81",
"F. c #5AAC83",
"G. c #58A681",
"H. c #53B384",
"J. c #5CB186",
"K. c #5DB589",
"L. c #5FB98C",
"P. c #5DB891",
"I. c #61A482",
"U. c #63B28A",
"Y. c #61BA8D",
"T. c #6BB58C",
"R. c #6ABA92",
"E. c #73BA97",
"W. c #77B68D",
"Q. c #79C99D",
"!. c #64C296",
"~. c #7ACCA4",
"^. c #7CCCA9",
"/. c #74CEAA",
"(. c #7ED1A8",
"). c #BA9B97",
"_. c #8BBDA2",
"`. c #90BDA4",
"'. c #9EA0A0",
"]. c #B0B5AD",
"[. c #9EA291",
"{. c #D9BC82",
"}. c #CFB5B1",
"|. c #E6AFB2",
" X c #98C586",
".X c #88C999",
"XX c #A0C684",
"oX c #9EE180",
"OX c #82CDAB",
"+X c #8DD2A6",
"@X c #8DD6B4",
"#X c #8AD8B6",
"$X c #91D7B6",
"%X c #95DBBB",
"&X c #9ADDBE",
"*X c #93D8B5",
"=X c #91D0A1",
"-X c #ADDCB9",
";X c #A4CFA7",
":X c #9AE0BF",
">X c #BFE2BA",
",X c #D9CA82",
"<X c #D6CE8C",
"1X c #E6DC9B",
"2X c #E5D997",
"3X c #E4D589",
"4X c #EBE29E",
"5X c #EEE5A2",
"6X c #F5EBA5",
"7X c #FFF5AD",
"8X c #9BDFC1",
"9X c #A0DFC1",
"0X c #B6C8C7",
"qX c #9CE1C2",
"wX c #9AE7C8",
"eX c #A2E2C4",
"rX c #A4EECD",
"tX c #A3E6CA",
"yX c #A7F2D1",
"uX c #D0D5D1",
"iX c #ECD5D8",
"pX c #C0E2D2",
"aX c #D8ECE8",
"sX c #F0F5F7",
"dX c None",
/* pixels */
"dXdXdXdXdXdXdXdXdXdXdXdXdXdXdXdXdXdXdXdXdXdXdXdXdXdXdXdXdXdXdXdXdXdXdXdXdXdXdXdXdXdXdXdXdXdXdXdXdXdX",
"dXdXdXdXdXdXdXdXdXdXdXdXdXdXdXdXdXdXdXdXdXdXdXdXdXdXdXdXdXdXdXdXdXdXdXdXdXdXdX7.dXdXdXdXdXdXdXdXdXdX",
"dXdXdXdXdXdXdXdXdXdXdXdXdXdXdXdXdXdXdXdXdXdXdXdXdXdXdXdXdXdXdXdXdXdXdXdXdXdXdX9.dXdXdXdXdXdXdXdXdXdX",
"dXdXdXdXdXdXdXdXdXdXdXdXdXdXdXdXdXdXdXdXdXdXdXdXdXdXdXdXdXdXdXdXdXdXdXdXdXdX;.3.2.4.dXdXdXdXdXdXdXdX",
"dXdXdXdXdXdXdXdXdXdXdXdXdXdXdXdXdXdXdXdXdXdXdXdXdXdXdXdXdXdXdXdXdXdXdXdXdXdX=.=.=.2.dXdXdX6.4.dXdXdX",
"dXdXdXdXdXdXdXdXdXdXdXdXdXdXdXdXdXdXdXdXdXdXdXdXdXdXdXdXdXdXdXdXdXdXdXdXdXdX-.#.;.=.4.dXdX4.=.dXdXdX",
"dXdXdXdXdXdXdXdXdXdXdXdXdXdXdXdXdXdXdXdXdXdXdXdXdXdXdXdXdXdXdXdXdXdXdXdXdXdX=.#.-.$.6.3.dX7.6.dXdXdX",
"dXdXdXdXdXdXdXdXdXdXdXdXdXdXdXdXdXdXdXdXdXdXdXdXdXdXdXdXdXdXdXdXdXdXdXdXdXdX=.O.=.$.=.&.=.#.2.2.dXdX",
"dXdXdXdXdXdXdXdXdXdXdXdXdXdXdXdXdXdXdXdXdXdXdXdXdXdXdXdXdXdXdXdXdXdXdXdXdX5.-.$.X.X.O.#.;.$.=.dXdXdX",
"dXdXdXdXdXdXdXdXdXM.M.n.dXdXdXdXdXdXdXdXdXdXdXdXdXdXA.2XdXdXdXdXdXdXdXdXdX1.j &.&.X.h %.%.$.%.dXdXdX",
"dXdXdXdXdXdXdXn.N.oXV.V.N.E dXdXdXdXdXdXdXdX1X5X4XA.3X7X1XdXdXdXdXdXdXdXdXk w p k &.O.&.#.%.;.dXdXdX",
"dXdXdX0X].d w.Z.n.n.n.M.E T v r e ].0X).r {.6X1X6X6X4X1X5X{.q dXdXdXdXdXdXw p q q s $.o.o.=.+.c 6.dX",
"dXdXdXaXuXb E n.n.n.n.N.W V W z f }.uX}.f l.4X1X2X4X2X4X4X5Xj.w dXdXdXdXdXy q y p w @.=.o.O.1.8.:.dX",
"dXdXdXsXiX0.T b.N.M.n.N.b...B.e.g iXaX|.g >.f.,X3X4X3Xk.,X4X4Xh.dXdXdXdXdXw w q e e q +.-.#.<.,.q dX",
"dXdXpXaXuXQ Y R a.B.M.B.M.b.B.b.z.iXaX}.m q.e.r.p.f.k.z.,X5X4Xk.dXdXdXdXdXa w q w e q q j j p f dXdX",
"dXdXyXqX*XR A U Y R E R W b.W w.~.tX8XeX8X Xe.d.d.r.k.<Xf.l.,X,X>XeXqX9XwXg.q a q q e q q r q q ].dX",
"dXdXrX:X*X) A Y U U U U U U Y B W.8X8X8X8X Xi.u.u.u.f.A.r.t.t.f.k.;XtXeXtX[.q a q q q e y p r r 9XdX",
"dXdXrX:XqX .B P U U U U U P P B .X8X8X8X8Xm.i.u.y.d.u.u.u.t.t.q.q.;X8X&XwX[.0 u q q q q w i q x -XdX",
"dXdXrX:XqXT.S I P P P P Z P A D OX8X8X%XqX+Xy.y.v.C.x.d.d.u.u.u.t.;X8X8X*Xa.0 i q q 0 q q u r b qXdX",
"dXdXyX:X%X} D A Z Z Z Z Z Z C T OX8X&X8XqX%X@X.X XC.v.x.d.d.f.f.t.;X8X-X*X| 0 q t q q q q u q n 8XdX",
"dXdXrXqX%X} J D Z V V V V A D J Q.qX%XqXqX&XqXqX%X*X=X Xs.y.u.c.d.*X8X*X8XE.6 r r i i i i a q v /.dX",
"dXqXrX%X:X(.J G B C V C C N G K #XqX%XqX&XqX8X8X:X:XqXqX%X+X Xm.a.$X8X&X&X%XE.6 t 0 q q q q 0 ` /.dX",
"dXqXrXqX:X:X~.K F M M M M F K ^.:X:X:XqXqX8X8X8XqX&X&X&XeXqX8X%X@X%X&X8X&X&X8XOXT.` v l l v ` ^.%XdX",
"dXtXyXqXeX:X:X*X(.!.} } !.~.%XqX:X:XqXqXqXqXqXqXqXeX8XqX&X8X8X9X9X&X8X&X8X&X8X9XqX#XOXOXOX^.#XqX%XdX",
"dX@XqX@X@X@X@X$X*X*X@X*X$X%X%X*X%X%X%X%X%X%X&X&X&X&XqX8X&X8X8XqXqXqXqX9X9X9X8X9X9X9XeXeXtXtX9XtX&XdX",
"dXD.Y.F.D.D.D.D.F.F.F.F.F.D.F.U.F.F.U.U.U.U.J.U.U.U.U.U.U.U.U.R.~.^.^.^.^.OX^.^.OXOXOXOXOXOXOX$XOXdX",
"dXF.Y.F.J.F.F.F.} F.F.} F.F.F.F.F.F.F.F.G.D.F.F.D.F.D.D.D.D.D.D.D.~ ~ ~ ~ ~ ~ ^ ] ( ] ] | ] ] H.~ dX",
"dXF.Y.F.F.F.F.J.U.F.F.U.F.F.F.F.F.F.J.F.F.F.F.F.F.F.F.F.F.F.F.F.J.1   * ; * ; ; ; ; ; : : > * { ( dX",
"dXT.Y.F.F.F.F.F.F.F.F.F.F.F.F.F.F.F.F.F.F.F.F.D.F.F.F.J.F.F.F.J.F.,                           { { dX",
"dX_.Y.F.U.F.F.F.U.F.F.F.J.F.F.F.U.F.F.F.F.F.F.U.F.F.F.F.F.F.D.F.H.1   $ @ @ @ @ @ @ @ @ @ $   { ^ dX",
"dX_.L.F.J.F.F.J.J.F.I.F.F.U.F.F.F.F.I.F.U.D.F.F.F.F.F.F.F.F.F.F.F.<   @                   o   ( | dX",
"dXE.R.F.F.F.I.F.F.F.F.F.F.D.F.U.F.F.F.F.F.F.J.F.F.F.F.F.F.F.F.F.F.<   @                   o   ( { dX",
"dXF.Y.F.J.F.F.F.U.G.F.J.F.F.F.U.F.F.F.F.F.F.F.F.U.F.F.F.F.F.F.H.F.<   @                   o   ( ( dX",
"dXF.R.F.F.F.F.F.F.F.F.I.F.F.F.D.F.F.J.F.U.F.F.F.} F.F.F.F.F.D.D.D.<   @                   o   ( G.dX",
"dXJ.L.F.F.F.F.F.F.F.F.F.F.F.F.F.F.F.F.I.} F.F.F.F.F.F.F.F.F.F.F.F.<   @                   X   ( G.'.",
"dXD.Y.F.F.F.F.F.F.F.F.F.F.F.F.F.F.F.F.F.F.F.F.F.F.F.F.F.F.F.F.F.F.<   @                   X   ~ ( [.",
"dXT.L.F.F.F.F.F.F.F.F.F.F.F.F.U.F.F.F.F.F.F.F.F.F.F.D.F.F.F.F.F.D.<   % o o o o X X X X X %   ( T.8 ",
"dX`.J.F.F.F.F.F.F.F.F.F.F.F.F.D.F.F.F.} F.F.F.F.F.F.F.F.D.F.D.D.F.,                           ! } 9 ",
"dX`.H.F.F.F.F.F.F.F.F.F.F.F.D.F.F.} F.F.F.} F.G.F.F.F.F.F.F.D.D.D.2 - : = - - - - $ # # @ o   ! ( dX",
"dX`.H.F.F.F.F.F.F.D.D.F.F.D.F.F.F.F.G.F.F.F.F.} D.F.D.F.F.D.F.D.F.{ | | | | { | ( ( ] / / ^ ^ ] } dX",
"dXT.K.F.F.F.F.F.F.F.F.D.F.F.D.F.F.F.F.F.F.F.F.F.F.F.F.F.D.F.D.} F.F.F.F.J.F.F.F.F.J.F.U.F.F.J.} T.dX",
"dX~ L.D.F.F.F.F.} F.F.F.D.F.D.F.D.F.} F.F.G.F.F.D.F.D.D.F.D.F.} D.D.I.S.S.G.D.} } } D.D.} } D.[ E.dX",
"dX( L.F.F.} } F.F.F.F.} F.F.F.D.F.G.F.D.D.F.} } G.D.D.F.F.D.D.} D.D.D.D.F.} F.J.F.} } D.D.D.D.} R.dX",
"dX^ U.) 5 1 2 5 } I.F.F.} F.F.D.F.F.D.F.F.} F.F.D.F.F.D.D.D.D.} } F.G.F.F.F.} ~ / } F.D.D.D.D.} T.dX",
"dX) J.3   . +   5 F.F.F.F.D.D.D.F.F.F.D.D.D.F.D.F.D.F.D.D.D.D.} G.G.D.D.F.] 1     : ! } D.D.D.} T.dX",
"dXI.D.  3 ^ ^ 2   } U.J.U.J.J.J.J.F.F.J.F.J.F.F.F.F.F.F.J.F.D.D.} F.D.F.D.2   4 5 & O ] D.D.} D.I.dX",
"dXS.D.  7 R.!._   } F.F.D.F.D.F.F.D.D.D.F.F.D.F.F.D.F.D.D.D.D.D.K.J.J.Y.{ O 3 J.Y./   ~ L.K.J.K.U.dX",
"dXdXdX+ : ^ / > . dXdXdXdXdXdXdXdXdXdXdXdXdXdXdXdXdXdXdXdXdXdXdXdXdXdXdXdX& < G.L._   dXdXD.D.D./ dX",
"dXdXdXdXdX    dXdXdXdXdXdXdXdXdXdXdXdXdXdXdXdXdXdXdXdXdXdXdXdXdXdXdXdXdXdXdX. ; 1 . dXdXdXdXdXdXdXdX",
"dXdXdXdXdXdXdXdXdXdXdXdXdXdXdXdXdXdXdXdXdXdXdXdXdXdXdXdXdXdXdXdXdXdXdXdXdXdXdXdXdXdXdXdXdXdXdXdXdXdX"
};
