/* XPM */
static char *result[] = {
/* columns rows colors chars-per-pixel */
"50 50 209 2 ",
"   c black",
".  c #000D0E",
"X  c #0C0000",
"o  c #150202",
"O  c #1D0807",
"+  c #001C0E",
"@  c #001313",
"#  c #001C1C",
"$  c #1D1112",
"%  c #191B1D",
"&  c #241B1B",
"*  c #2C1819",
"=  c #002323",
"-  c #002B2B",
";  c #0A282B",
":  c #063637",
">  c #242426",
",  c #2B2D2F",
"<  c #2A3E3F",
"1  c #283536",
"2  c #343335",
"3  c #323739",
"4  c #3C3C3D",
"5  c #353A3D",
"6  c #5F0000",
"7  c #6D0000",
"8  c #7D0000",
"9  c #663700",
"0  c #7C5B00",
"q  c #034A4A",
"w  c #244143",
"e  c #38454B",
"r  c #275050",
"t  c #434142",
"y  c #454B4C",
"u  c #5A5455",
"i  c #754C4C",
"p  c #785859",
"a  c #6C5A5B",
"s  c #6A5F60",
"d  c #7E5F60",
"f  c #7C6869",
"g  c #747476",
"h  c #78797B",
"j  c #6C7779",
"k  c #830000",
"l  c #940000",
"z  c #9B0000",
"x  c #AD0101",
"c  c #A80606",
"v  c #B50000",
"b  c #B90101",
"n  c #B40D01",
"m  c #BA0409",
"M  c #BB0D0E",
"N  c #B5060C",
"B  c #B51808",
"V  c #B71213",
"C  c #BA1213",
"Z  c #B51C12",
"A  c #B71C1C",
"S  c #872000",
"D  c #913500",
"F  c #A02300",
"G  c #B62C00",
"H  c #BA3C01",
"J  c #B43E13",
"K  c #803D3F",
"L  c #B72323",
"P  c #BA2B2B",
"I  c #B82625",
"U  c #BB3434",
"Y  c #B93B3C",
"T  c #C20000",
"R  c #CB0002",
"E  c #C01313",
"W  c #C71302",
"Q  c #C33D01",
"!  c #C02621",
"~  c #C93436",
"^  c #B74900",
"/  c #A55C00",
"(  c #B85705",
")  c #B54014",
"_  c #8B6500",
"`  c #816C00",
"'  c #8B7300",
"]  c #8E7B00",
"[  c #867900",
"{  c #937D00",
"}  c #9D7C00",
"|  c #B26400",
" . c #B8640E",
".. c #A77C00",
"X. c #B87600",
"o. c #CC4F01",
"O. c #8C3F40",
"+. c #834C4C",
"@. c #974B4C",
"#. c #86595A",
"$. c #9A5758",
"%. c #B54344",
"&. c #B94A4B",
"*. c #BC4F58",
"=. c #AC5354",
"-. c #A55A5B",
";. c #BA5B5C",
":. c #B85354",
">. c #AB4A4B",
",. c #8D5F60",
"<. c #896C6D",
"1. c #936B6C",
"2. c #9C6B6B",
"3. c #996263",
"4. c #897878",
"5. c #947C7D",
"6. c #9C7677",
"7. c #A56768",
"8. c #B56869",
"9. c #B3787C",
"0. c #C2484B",
"q. c #C17A7B",
"w. c #938300",
"e. c #9B8500",
"r. c #9C8D00",
"t. c #978900",
"y. c #9E9300",
"u. c #A38C00",
"i. c #AB8D00",
"p. c #A68400",
"a. c #B58400",
"s. c #B38E00",
"d. c #BD8C00",
"f. c #B88700",
"g. c #A39400",
"h. c #A99400",
"j. c #A59A00",
"k. c #AB9B00",
"l. c #B39401",
"z. c #B69E00",
"x. c #BB9C00",
"c. c #B99908",
"v. c #ADA400",
"b. c #AFA900",
"n. c #A6A000",
"m. c #B3A400",
"M. c #BBA300",
"N. c #B3AC00",
"B. c #BCAB00",
"V. c #B5B200",
"C. c #BBB400",
"Z. c #BCB900",
"A. c #B7B801",
"S. c #BEBF14",
"D. c #BAA41D",
"F. c #C19D00",
"G. c #C99600",
"H. c #C3AC00",
"J. c #C8AE00",
"K. c #D9A600",
"L. c #C3B600",
"P. c #CBB200",
"I. c #C3BC00",
"U. c #CABC00",
"Y. c #D7BA00",
"T. c #C1A514",
"R. c #BEC300",
"E. c #C6C200",
"W. c #CBC400",
"Q. c #CDCA00",
"!. c #C0C10D",
"~. c #D1C601",
"^. c #D2CC00",
"/. c #DACF00",
"(. c #D8C600",
"). c #CDD100",
"_. c #D5D200",
"`. c #DAD400",
"'. c #DCDA00",
"]. c #DED812",
"[. c #C2C018",
"{. c #E7C800",
"}. c #E2DD00",
"|. c #F1DF00",
" X c #E6E100",
".X c #EAE600",
"XX c #ECE900",
"oX c #F2EC00",
"OX c #F5E200",
"+X c #F6F300",
"@X c #FCFA00",
"#X c #C39649",
"$X c #C39F70",
"%X c #C39F68",
"&X c #8A8386",
"*X c #86858D",
"=X c #9D8C8E",
"-X c #948789",
";X c #8D8F92",
":X c #978F91",
">X c #949798",
",X c #B8848A",
"<X c #BF9E8F",
"1X c #A18D91",
"2X c #BE9D92",
"3X c #A08A8A",
"4X c #929EA1",
"5X c #BAA7AA",
"6X c #464646",
/* pixels */
"6X6X6X6X6X6X6X6X6X6X6X6X6X6X6X6X6X6X6X6X6X6X6X6X6X6X6X6X6X6X6X6X6X6X6X6X6X6X6X6X6X6X6X6X6X6X6X6X6X6X",
"6X6X6X6X6X6X6X6X6X6X6X6X6X6X6X6X6X6X6X6X6X6X6X6X6X6X6X6X6X6X6X6X6X6X6X6X6X6X6X6X6X6X6X6X6X6X6X6X6X6X",
"6X6X6X6X6X6X6X6X6X6X6X}. X X6X6X6X6X6X6X6X6X6X6X6X6X6X6X6X6X6X6X6X6X6X6X6X6X6X6X6X6X6X6X6X6X6X6X6X6X",
"6X6X6X6X6X6X6X6X6X6X6X^..XXXW.6X6X6X6X6X6X6X6X6X}.}.6X6X6X6X6X6X6X6X6X6X6X6X6X6X6X6X6X6X6X6X6X6X6X6X",
"6X6X6X6X6X6X6X6X6X6X6X6XI.V.I.V.6X6X6X6X6X6X6X6XXX+X@X6X6X6X'. X X'.6X6X6X6X6X6X6X6X6X6X6X6X6X6X6X6X",
"6X6X6X6X6X6X6X6X6X6X6X6XI.E.I.V.6X6X6X6X6X6X6X6XN.C.I.N.6X6X^.oXXX^.6X6X6X6X6X6X6X6X6X6X6X6X6X6X6X6X",
"6X6X6X6X6X6X6X6X6X6X6X6X6X^.I.E.6X6X6X6X6X6X6X6XN.C.Z.b.6X6X6XZ.N.b.6X6X6X6X6X6X6X6X6X6X6X6X6X6X6X6X",
"6X6X6X6X6X6X6X6X6X6X6X6X6XV.V.I.V.6X6X6X6XoXXX}.V.C.I.V.6X6X6XI.V.C.6X6X6X6X6X6X6X6X6X6X6X6X6X6X6X6X",
"6X6X6X6X6X6X6X6X6X6X6X}.@XXXU.Z.W.6X6X}.(.I.^.Q.z.~.U.'.XX}.6XN.B.I.6X6X6X6X6X6X6X6X6X6X6X6X6X6X6X6X",
"6X6X6X6X6X6X6X6X6X6X6XZ.W.W.Z.C.~.N.^.K.x m.V.I.u.C.I.'.'.oXV.V.Z.W.b.6X6X6X6X6X6X6X6X6X6X6X6X6X6X6X",
"6X6X6X6X6X6X6X6X6X6X6Xv.I.N.N.N.N.V.f.v x z.Z.W.U.B.v.v.V.V.v.V.I.^.V.6X6X6X6X6X6X6X6X6X6X6X6X6X6X6X",
"6X6X6X6X6X6X6X6X6X6X6X6XI.V.V.h.Z.}.`.J.c s.Z.E.XXXX`.v.Z.V.i.z.I.W.Z.6X6X6X6X6X6X6X6X6X6X6X6X6X6X6X",
"6X6X6X6X6X6X6X6X6X6X6X6XC.V.V.y.Z.W._.V.z ..Z.N.V.Z.N.j.Z.C.k.p.Z.L.N.6X6X6X6X6X6X6X6X6X6X6X6X6X6X6X",
"6X6X6X6X6X6X6X6X6X6X6X6XN.V.V.y.V.V.V.e.l / B.m.C.Z.v.g.Z.Z.N...V.I.^.`.6X6X6X6X6X6X6X6X6X6X6X6X6X6X",
"6X6X6X6X6X6X6X6X6X6X6X6XN.I.V.n.V.V.C.y.S D v.V.I.E.m.r.Z.L.V.e.m.W.'.@XI.6X6X6X6X6X6X6X6X6X6X6X6X6X",
"6X6X6X6X6X6X6X6X6X6X6X6XN.U.C.N.V.A.N.y._ 8 g.I.E.W.v.w.m.V.V.t.j.Z.V.N.^.6X6X6X6X6X6X6X6X6X6X6X6X6X",
"6X6X6X6X6X6X6X6X6X6X6X6X6XI.C.V.C.Z.v.r.' 7 _ v.m.N.t.` r.V.N.r.n.Z.A.N.`.6X6X6X6X6X6X6X6X6X6X6X6X6X",
"6X6X6X6X6X6X6X6X6X6X6X6XV.I.B.V.C.Z.j.w.B.m.B.Q.I.^.'.^.v.n.b.n.A.V.V.m.N.6X6X6X6X6X6X6X6X6X6X6X6X6X",
"6X6X6X6X6X6X6X6X6X6X6X_.Y.M.H.Z.Z.Z.r.r.`.'._.'.'.I.W.^.g.j.y.b.C.A.v.m.E.}.6X6X6X6X6X6X6X6X6X6X6X6X",
"6X6X6X6X6X6X6X6X6X6X6X`.x i.B.B.C.V.{ j.V.v.v.b.v.v.N.v.] r.y.V.C.V.k.C.x.OX6X6X6X6X6X6X6X6X6X6X6X6X",
"6X6X6X6X6X6X6X6X6X6X6X{.z ' F.B.L.N.} m.C.N.V.V.N.m.N.v.[ [ v.V.C.k.k.Z.| {.'.6X6X6X6X6X6X6X6X6X6X6X",
"6X6X6X6X6X6X6X6X6X6X6XoXF 9 f.x.M.k.u.Z.N.b.N.N.v.m.N.k.] w.N.V.V.u.z.k.8 |.E.6X6X6X6X6X6X6X6X6X6X6X",
"6X6X6X6X6X6X6X6X6X6X6X'.U.6 / X.x.i.e.B.N.N.V.N.v.v.N.h.{ k.V.C.h.p.z.0 m. Xl.6X6X6X6X6X6X6X6X6X6X6X",
"6X6X6X6X6X6X6X6X6X6X6XM.).I.| ( d.s.B.B.N.N.V.b.k.v.N.r.w.N.C.N.e.l.z.L.Q.P.H 6X6X6X6X6X6X6X6X6X6X6X",
"6X6X6X6X6X6X6X6X6X6X6Xo.k.R.E.f.G.l.x.x.m.N.V.v.h.m.N.{ j.B.C.h.p.M.E.E.N.o.m 6X6X6X6X6X6X6X6X6X6X6X",
"6X6X6X6X6X6X6X6X6X6X6XT G a.V.N.G.i.c.F.N.V.N.v.k.N.m.` N.L.L.h.s.N.V.s.H R b 6X6X6X6X6X6X6X6X6X6X6X",
"6X6X6X6X6X6X6X6X6X6X,X! v v | V.H.P.K.H.b.N.N.k.k.B.m.e.P.U.B.B.M.V.X.b v W ,X6X6X6X6X6X6X6X6X6X6X6X",
"6X6X6X6X6X6X6X6X6X6X5X0.v Z v l.A.(.Y.H.N.V.N.k.z.L.B.B.U.U.m.g.V.m.b B b ~ 5X6X6X6X6X6X6X6X6X6X6X6X",
"6X6X6X6X6X6X6X6X6X6X6X9.v Z v ( N.!.}.E.N.N.B.M.H.L.B.C.`.'.~.Z.V. .b Z b q.6X6X6X6X6X6X6X6X6X6X6X6X",
"6X6X6X6X6X6X6X6X6X6X6X5.P n B v c.R.'.J.W.C.L.`./.~.U./.}..X}.I.D.v n b C 6.6X6X6X6X6X6X6X6X6X6X6X6X",
"6X6X6X6X6X6X6X6X6X6X6X4.&.v Z *.H N.T.T.c.M.U.}.XX}..XXX}.].[.V.^ *.I v U 6.6X6X6X6X6X6X6X6X6X6X6X6X",
"6X6X6X6X6X6X6X6X6X6X6Xh :.v v =X,X#XN.Z.Z.l.N.Z.^.`.`.`.Q.V.V.#X,X=XL v &.4.6X6X6X6X6X6X6X6X6X6X6X6X",
"6X6X6X6X6X6X6X6X6X6X6X6X8.v C #.q =X2X$XD.N.N.N.b.N.N.m.D.%X<X1Xr p A b ;.6X6X6X6X6X6X6X6X6X6X6X6X6X",
"6X6X6X6X6X6X6X6X6X6X6X6X7.v b -.@   < *X9.v J ^ ( ^ J n 8.*Xe     3.b b 8.6X6X6X6X6X6X6X6X6X6X6X6X6X",
"6X6X6X6X6X6X6X6X6X6X6X6X6.v v $.1 o     1.v x v v v N b 2.+   O : -.b b 7.6X6X6X6X6X6X6X6X6X6X6X6X6X",
"6X6X6X6X6X6X6X6X6X6X6X6X5.I v =.e   $ # 1.v n n n n B b 2.- o   < =.b M 6.6X6X6X6X6X6X6X6X6X6X6X6X6X",
"6X6X6X6X6X6X6X6X6X6X6X6X5.Y m %.u   $   <.A v v v v v v 1.@ o   y =.v U 6.6X6X6X6X6X6X6X6X6X6X6X6X6X",
"6X6X6X6X6X6X6X6X6X6X6X6X;X&.v Y a   $   <.P v x N v v V <.  &   u %.v Y -X6X6X6X6X6X6X6X6X6X6X6X6X6X",
"6X6X6X6X6X6X6X6X6X6X6X6X4X8.v P d   &   s Y b Z b C C P f   &   a U v ;.>X6X6X6X6X6X6X6X6X6X6X6X6X6X",
"6X6X6X6X6X6X6X6X6X6X6X6X6X>.v m 3.. X . &X7.i i 2.+.i -.-X-     #.A v %.6X6X6X6X6X6X6X6X6X6X6X6X6X6X",
"6X6X6X6X6X6X6X6X6X6X6X6X6Xx C b 3.= ; ;X;.@.#   j @   @.:.:X<   1.b M v 6X6X6X6X6X6X6X6X6X6X6X6X6X6X",
"6X6X6X6X6X6X6X6X6X6X6X6X6XN M v =.&X:X:.b $.= o g * . $.v %.=X&X-.v M c 6X6X6X6X6X6X6X6X6X6X6X6X6X6X",
"6X6X6X6X6X6X6X6X6X6X6X6X6X6XT v n I A v b =.-   g & @ $.b v C P b v R x 6X6X6X6X6X6X6X6X6X6X6X6X6X6X",
"6X6X6X6X6X6X6X6X6X6X6X6X6X6Xx v m b T E T @.#   g O   @.T C T b m b x 6X6X6X6X6X6X6X6X6X6X6X6X6X6X6X",
"6X6X6X6X6X6X6X6X6X6X6X6X6X6X6X6X6X6X6XN v i w , h 4 : @.v c 6X6X6X6X6X6X6X6X6X6X6X6X6X6X6X6X6X6X6X6X",
"6X6X6X6X6X6X6X6X6X6X6X6X6X6X6X6X6X6X6X6X6X* , 3 5 3 , 6X6X6X6X6X6X6X6X6X6X6X6X6X6X6X6X6X6X6X6X6X6X6X",
"6X6X6X6X6X6X6X6X6X6X6X6X6X6X6X6X6X6X6X6X6X, > % % % > 6X6X6X6X6X6X6X6X6X6X6X6X6X6X6X6X6X6X6X6X6X6X6X",
"6X6X6X6X6X6X6X6X6X6X6X6X6X6X6X6X6X6X6X6X6X2 2 2 2 4 t 6X6X6X6X6X6X6X6X6X6X6X6X6X6X6X6X6X6X6X6X6X6X6X",
"6X6X6X6X6X6X6X6X6X6X6X6X6X6X6X6X6X6X6X6X6X2 t t t t t 6X6X6X6X6X6X6X6X6X6X6X6X6X6X6X6X6X6X6X6X6X6X6X",
"6X6X6X6X6X6X6X6X6X6X6X6X6X6X6X6X6X6X6X6X6X6X6X6X6X6X6X6X6X6X6X6X6X6X6X6X6X6X6X6X6X6X6X6X6X6X6X6X6X6X",
};
