/* XPM */
static char *result[] = {
/* columns rows colors chars-per-pixel */
"50 50 2 1 ",
"  c #0F361A",
". c #22B14C",
/* pixels */
"..................................................",
"..................................................",
"..............................  ..................",
"........... .................. ...................",
"........... .............. ... ...................",
".......  .. .............. .. ................ ...",
"........  . .. ........... .. ............. .  ...",
"..... ... . .. ...........  . ..  ......... . ....",
".....   .  ... ............ . .  .......... . ....",
"....... .  ..  .............  . ............  . ..",
".......       ..............   .............    ..",
"........    .................  .............   ...",
".........  ................... ..............  ...",
"..................................................",
"..................................................",
"................................... ..............",
"................................... ..............",
"................................... ..............",
"...... ........................ ... ..............",
"... .. ........................ ... .. ...........",
"....   .. ..................... .. ..  ...........",
"....  ..  ....... .............. . .. ............",
"....  .  ........ .............. . .  ............",
".....   ...... .  .. ............    .............",
".....  .......   ... ............   .......... ...",
"...............  ..  .............  ......  .. . .",
"...............  .  .. ........... ........ .. . .",
"...............  . ..  .................... ..   .",
"................  .   .....................  .  ..",
"................   ..........................   ..",
".................  ..........................  ...",
"..................................................",
"..................................................",
"................................ ....... .........",
"............ ................... ....... .........",
"......... .. . .................  .....  .........",
".........  . . .................. .. .. ..........",
"..... .... . . .................. .  .. ..........",
"..... ....    ......... ...... ..   ..  ..........",
"... . .....   ...... .  ......  ..  .. ...........",
"... . ...... ....... . ........  .    ............",
"....  .  ... ....... . .. .......    .............",
".....   .............  .  ......... ..............",
"..... ...............    .......... ..............",
"......................  ..........................",
"..................................................",
"..................................................",
"..................................................",
"..................................................",
".................................................."
};
