/* XPM */
static char *result[] = {
/* columns rows colors chars-per-pixel */
"50 50 103 1 ",
"   c black",
".  c #000101",
"X  c #010101",
"o  c #020202",
"O  c gray1",
"+  c #070707",
"@  c #0B0B0B",
"#  c #3A0911",
"$  c #3B0A12",
"%  c #3B0B13",
"&  c #3C0B13",
"*  c #3C0C14",
"=  c #3D0D15",
"-  c #3E0E16",
";  c #3F0F17",
":  c #3F1018",
">  c #202020",
",  c #401118",
"<  c #42141B",
"1  c #43151C",
"2  c #44161D",
"3  c #45171E",
"4  c #461820",
"5  c #471921",
"6  c #481A22",
"7  c #491C24",
"8  c #4C1F26",
"9  c #53282F",
"0  c #532930",
"q  c #562C33",
"w  c #5A3137",
"e  c #5C333A",
"r  c #643E44",
"t  c gray26",
"y  c #735056",
"u  c #745157",
"i  c #755359",
"p  c #7A595E",
"a  c #7C5B60",
"s  c #676767",
"d  c #686868",
"f  c #811426",
"g  c #811527",
"h  c #821628",
"j  c #831829",
"k  c #83192A",
"l  c #841A2B",
"z  c #841A2C",
"x  c #851B2D",
"c  c #A11B31",
"v  c #A11C32",
"b  c #A21D33",
"n  c #A21E33",
"m  c #A21F34",
"M  c #872031",
"N  c #882132",
"B  c #892334",
"V  c #892434",
"C  c #8A2535",
"Z  c #8B2637",
"A  c #A42137",
"S  c #A42237",
"D  c #A5253A",
"F  c #A6273C",
"G  c #A6283C",
"H  c #A72A3F",
"J  c #913141",
"K  c #913242",
"L  c #923343",
"P  c #963C4B",
"I  c #983E4D",
"U  c #983F4E",
"Y  c #A82B40",
"T  c #A82C40",
"R  c #A82D41",
"E  c #A92F43",
"W  c #AC374A",
"Q  c #AD384B",
"!  c #AD394C",
"~  c #AE394C",
"^  c #9B4553",
"/  c #9C4654",
"(  c #9C4755",
")  c #9E4957",
"_  c #9E4A58",
"`  c #9F4B59",
"'  c #A35360",
"]  c #A45562",
"[  c #A55764",
"{  c #A65966",
"}  c #A85D69",
"|  c #B75061",
" . c #B75161",
".. c #BC5B6B",
"X. c #BD5E6E",
"o. c #806166",
"O. c #AB616D",
"+. c #AC6470",
"@. c #AD6672",
"#. c #C06776",
"$. c #E3BBC2",
"%. c white",
"&. c None",
/* pixels */
"&.&.&.&.&.&.&.&.&.&.&.&.&.&.&.&.&.&.&.&.&.&.&.&.&.",
"&.&.&.&.&.&.&.&.&.&.&.&.&.&.&.&.&.&.&.&.&.&.&.&.&.",
"&.&.&.&.&.&.&.&.&.&.&.&.&.&.&.&.&.&.&.&.&.&.&.&.&.",
"&.&.&.&.&.&.&.&.&.&.&.&.&.&.&.&.&.&.&.&.&.&.&.&.&.",
"&.&.&.&.&.&.&.&.&.&.&.&.&.&.&.&.&.&.&.&.&.&.&.&.&.",
"&.&.&.&.&.&.&.&.&.&.&.&.&.&.&.&.&.&.&.&.&.&.&.&.&.",
"&.&.&.&.&.&.&.&.&.&.&.&.&.&.&.&.&.&.&.&.&.&.&.&.&.",
"&.&.&.&.&.&.&.&.&.&.&.&.&.&.&.&.&.&.&.&.&.&.&.&.&.",
"&.&.&.&.&.&.&.&.&.&.&.&.&.&.&.&.&.&.&.&.&.&.&.&.&.",
"&.&.&.&.&.&.&.&.&.&.&.&.&.&.&.&.&.&.&.&.&.&.&.&.&.",
"&.&.&.&.&.&.&.&.&.&.&.&.&.&.&.&.&.&.&.&.&.&.&.&.&.",
"&.&.&.&.&.&.&.&.&.&.&.&.&.&.&.&.&.&.&.&.&.&.&.&.&.",
"&.&.&.&.&.&.&.&.&.&.&.&.&.&.&.&.&.&.&.&.&.&.&.&.&.",
"&.&.&.&.&.&.&.&.&.&.&.# # # # # # # &.&.&.&.&.&.&.",
"&.&.&.&.&.&.&.&.&.&.# f c c c c c c # &.&.&.&.&.&.",
"&.&.&.&.&.&.&.&.&.# f c c c # # # # c # &.&.&.&.&.",
"&.&.&.&.&.&.&.&.# f c c c #         # c # &.&.&.&.",
"&.&.&.&.&.&.&.&.# f c c #             # c # &.&.&.",
"&.&.&.&.&.&.&.# f f c c #             # c # &.&.&.",
"&.&.&.&.&.&.&.# f f f c #   %.      %.# c # &.&.&.",
"&.&.&.&.&.&.&.# f # f c #   %.      %.# c # &.&.&.",
"&.&.&.&.&.&.&.# f # f c #             # f # &.&.&.",
"&.&.&.&.&.&.&.&.# # f f c #           # f # &.&.&.",
"&.&.&.&.&.&.&.&.&.&.# f f f #       # f # &.&.&.&.",
"&.&.&.&.&.&.&.&.&.&.&.# # f f # # # f # &.&.&.&.&.",
"&.&.&.&.&.&.&.&.&.&.# f f f c c c c c f # &.&.&.&.",
"&.&.&.&.&.&.&.&.&.# f c c c c c c c c c f # &.&.&.",
"&.&.&.&.&.&.&.&.&.# f c c c c c c c c c f # &.&.&.",
"&.&.&.&.&.&.&.&.&.# c c c c c c c c c c c # &.&.&.",
"&.&.&.&.&.&.&.&.# f c c c c c c c c c c c # &.&.&.",
"&.&.&.&.&.&.&.&.# f c c c c c c f c c c c f # &.&.",
"&.&.&.&.&.&.&.&.# f c c c c c c f c c c c f # &.&.",
"&.&.&.&.&.&.&.&.# f c c c c c f # f c c f f # &.&.",
"&.&.&.&.&.&.&.# f f f c f c f f # f f c f f # &.&.",
"&.&.&.&.&.&.&.# f f f f c f f #   # f f f f # &.&.",
"&.&.&.&.&.&.&.# f # f f f f #     # f f # f # &.&.",
"&.&.&.&.&.&.&.&.# # f # f f #       # f f # &.&.&.",
"&.&.&.&.&.&.&.&.&.# # &.# # # &.&.  # # # &.&.&.&.",
"&.&.&.&.&.&.&.&.&.&.&.&.    &.&.&.&.  &.&.&.&.&.&.",
"&.&.&.&.&.&.&.&.&.&.&.&.&.  &.&.&.&.  &.&.&.&.&.&.",
"&.&.&.&.&.&.&.&.&.&.&.&.&.  &.&.&.&.  &.&.&.&.&.&.",
"&.&.&.&.&.&.&.&.&.&.&.&.&.&.&.&.&.&.&.&.&.&.&.&.&.",
"&.&.&.&.&.&.&.&.&.&.&.&.&.&.&.&.&.&.&.&.&.&.&.&.&.",
"&.&.&.&.&.&.&.&.&.&.&.&.&.&.&.&.&.&.&.&.&.&.&.&.&.",
"&.&.&.&.&.&.&.&.&.&.&.&.&.&.&.&.&.&.&.&.&.&.&.&.&.",
"&.&.&.&.&.&.&.&.&.&.&.&.&.&.&.&.&.&.&.&.&.&.&.&.&.",
"&.&.&.&.&.&.&.&.&.&.&.&.&.&.&.&.&.&.&.&.&.&.&.&.&.",
"&.&.&.&.&.&.&.&.&.&.&.&.&.&.&.&.&.&.&.&.&.&.&.&.&.",
"&.&.&.&.&.&.&.&.&.&.&.&.&.&.&.&.&.&.&.&.&.&.&.&.&.",
"&.&.&.&.&.&.&.&.&.&.&.&.&.&.&.&.&.&.&.&.&.&.&.&.&.",
};
