/* XPM */
static char *result[] = {
/* columns rows colors chars-per-pixel */
"50 50 11 1 ",
"  c #25131A",
". c #3D253B",
"X c #523B40",
"o c #606060",
"O c #895A45",
"+ c #BF704D",
"@ c #9A8571",
"# c #E1A171",
"$ c #5880CC",
"% c #CAE6F5",
"& c None",
/* pixels */
"&&&&&&&&&&&&&&&&&&&&&&&&&&&&&&&&&&&&&&&&&&&&&&&&&&",
"&&&&&&&&&&&&&&&&&&&&&&&&&&&&&&&&&&&&&&&&&&&&&&&&&&",
"&&&&&&&&&&&&&&&&&&&&&&&&&&&&&&&&&&&&&&&&&&&&&&&&&&",
"&&&&&&&&&&&&&&&&&&&&&&&&&&&&&&&&&&&&&&&&&&&&&&&&&&",
"&&&&&&&&&&&&&&&&&&&&&&&&&&&&&&&&&&&&&&&&&&&&&&&&&&",
"&&&&&&&&&&&&&&&&&&&&&&&&&&&&&&&&&&&&&&&&&&&&&&&&&&",
"&&&&&&&&&&&&&&&&&&&&&&&&&&&&&&&&&&&&&&&&&&&&&&&&&&",
"&&&&&&&&&&&&&&&&&&&&&&&&&&&&&&&&&&&&&&&&&&&&&&&&&&",
"&&&&&&&&&&&&&&&&&&&&&&&&&&&&&&&&&&&&&&&&&&&&&&&&&&",
"&&&&&&&&&&&&&&&&&&&&&&&&&&&&&&&&&&&&&&&&&&&&&&&&&&",
"&&&&&&&&&&&&&&&&&&&&&&&&&&&&&&&&&&&&&&&&&&&&&&&&&&",
"&&&&&&&&&&&&&&&&&&&&&&&&&&&&&&&&&&&&&&&&&&&&&&&&&&",
"&&&&&&&&&&&&&&&&&&&&&&&&&&&&&&&&&&&&&&&&&&&&&&&&&&",
"&&&&&&&&&&&&&&&&&&&&&&&&&&&&&&&&&&&&&&&&&&&&&&&&&&",
"&&&&&&&&&&&&&&&&&&&&&&&&&&&&&&&&&&&&&&&&&&&&&&&&&&",
"&&&&&&&&&&&&&&&&&&&&&&&&&&&&&&&&&&&&&&&&&&&&&&&&&&",
"&&&&&&&&&&&&&&&&&&&&&&&&&&&&&&&&&&&&&&&&&&&&&&&&&&",
"&&&&&&&&&&&&&&&&&&&&&&&&&&    &&&&&&&&&&&&&&&&&&&&",
"&&&&&&&&&&&&&&&&&&&&&&&& XXXX    &&&&&&&&&&&&&&&&&",
"&&&&&&&&&&&&&&&&&&&&&&& XXXOOOOOO &&&&&&&&&&&&&&&&",
"&&&&&&&&&&&&&&&&&&&&&&  OOOOOOOOO &&&&&&&&&&&&&&&&",
"&&&&&&&&&&&&&&&&&&&&& OOOOOOOOOOO &&&&&&&&&&&&&&&&",
"&&&&&&&&&&&&&&&&&&&& OOO...###OO &&&&&&&&&&&&&&&&&",
"&&&&&&&&&&&&&&&&&&&& O....####  &&&&&&&&&&&&&&&&&&",
"&&&&&&&&&&&&&&&&&&&&& ....#### &&&&&&&&&&&&&&&&&&&",
"&&&&&&&&&&&&&&&&&&&&& ....#### &&&&&&&&&&&&&&&&&&&",
"&&&&&&&&&&&&&&&&&&&&& ..$$#### &&&&&&&&&&&&&&&&&&&",
"&&&&&&&&&&&&&&&&&&&&& $$$$$###X &&&&&&&&&&&&&&&&&&",
"&&&&&&&&&&&&&&&&&&&& #$$$$$$$X$ &   &&&&&&&&&&&&&&",
"&&&&&&&&&&&&&&&&&&& ###$$$$$XX$  +++ &&&&&&&&&&&&&",
"&&&&&&&&&&&&&&&&&& ###  $$$XX$++++++ &&&&&&&&&&&&&",
"&&&&&&&&&&&&&&&&& ### & $XXX$$+++   &&&&&&&&&&&&&&",
"&&&&&&&&&&&&&&&&& ## & XXX$$$    &&&&&&&&&&&&&&&&&",
"&&&&&&&&&&&&&&&& ##    XXXX$$ &&&&&&&&&&&&&&&&&&&&",
"&&&&&&&&&&&&&&&& ##XX%%oo@XXX &&&&&&&&&&&&&&&&&&&&",
"&&&&&&&&&&&&&&&&&  X%%%%%%%@@    &&&&&&&&&&&&&&&&&",
"&&&&&&&&&&&&&&&&&&&  %%%%%%%%%%## &&&&&&&&&&&&&&&&",
"&&&&&&&&&&&&&&&&&&&& ooo%%%%%%%### &&&&&&&&&&&&&&&",
"&&&&&&&&&&&&&&&&&&& ++++   %%%  ## &&&&&&&&&&&&&&&",
"&&&&&&&&&&&&&&&&&& ++++ &&&   #### &&&&&&&&&&&&&&&",
"&&&&&&&&&&&&&&&&& ++++ &&&&  #### &&&&&&&&&&&&&&&&",
"&&&&&&&&&&&&&&&& ++++ &&&& ..##  &&&&&&&&&&&&&&&&&",
"&&&&&&&&&&&&&&& +++  &&&&& ..  &&&&&&&&&&&&&&&&&&&",
"&&&&&&&&&&&&&& +++ &&&&&&&&  &&&&&&&&&&&&&&&&&&&&&",
"&&&&&&&&&&&&& +++ &&&&&&&&&&&&&&&&&&&&&&&&&&&&&&&&",
"&&&&&&&&&&&& ..+ &&&&&&&&&&&&&&&&&&&&&&&&&&&&&&&&&",
"&&&&&&&&&&&& .. &&&&&&&&&&&&&&&&&&&&&&&&&&&&&&&&&&",
"&&&&&&&&&&&&&  &&&&&&&&&&&&&&&&&&&&&&&&&&&&&&&&&&&",
"&&&&&&&&&&&&&&&&&&&&&&&&&&&&&&&&&&&&&&&&&&&&&&&&&&",
"&&&&&&&&&&&&&&&&&&&&&&&&&&&&&&&&&&&&&&&&&&&&&&&&&&",
};
