/* XPM */
static char *result[] = {
/* columns rows colors chars-per-pixel */
"50 50 200 2 ",
"   c black",
".  c #00001D",
"X  c #350008",
"o  c #330019",
"O  c #000025",
"+  c #00022A",
"@  c #000C2D",
"#  c #180928",
"$  c #19122A",
"%  c #2D0826",
"&  c #2A0222",
"*  c #3C0623",
"=  c #3B0C25",
"-  c #3E0F29",
";  c #360926",
":  c #3E1226",
">  c #351225",
",  c #1E2432",
"<  c #37202D",
"1  c #2D2B37",
"2  c #420000",
"3  c #4E001A",
"4  c #5A0A1E",
"5  c #50001B",
"6  c #7A0000",
"7  c #7D130E",
"8  c #640D17",
"9  c #790217",
"0  c #711417",
"q  c #73131E",
"w  c #741C1D",
"e  c #7A1710",
"r  c #430C24",
"t  c #470121",
"y  c #540322",
"u  c #441324",
"i  c #521524",
"p  c #641725",
"a  c #731F21",
"s  c #731520",
"d  c #6F2021",
"f  c #7A2A26",
"g  c #72302E",
"h  c #783939",
"j  c #59443F",
"k  c #70463B",
"l  c #7D503C",
"z  c #6E4D46",
"x  c #764A42",
"c  c #6C5F55",
"v  c #850502",
"b  c #91000D",
"n  c #84190E",
"m  c #811509",
"M  c #9A1D08",
"N  c #831A11",
"B  c #8B1B13",
"V  c #841917",
"C  c #AB1300",
"Z  c #9D220E",
"A  c #8A231D",
"S  c #8B2418",
"D  c #992313",
"F  c #982617",
"G  c #94331F",
"H  c #9D391F",
"J  c #AB2603",
"K  c #A2230A",
"L  c #AB2D0B",
"P  c #AA340E",
"I  c #BD3B0D",
"U  c #A22913",
"Y  c #AB2B15",
"T  c #A22D1A",
"R  c #A82817",
"E  c #B42418",
"W  c #AC3315",
"Q  c #AE3915",
"!  c #AD341A",
"~  c #AD3A1B",
"^  c #A53A1A",
"/  c #B33315",
"(  c #BA3A13",
")  c #B23419",
"_  c #B43D1A",
"`  c #B83A18",
"'  c #811A20",
"]  c #822421",
"[  c #852922",
"{  c #8B2B22",
"}  c #8B3422",
"|  c #893728",
" . c #9C3C20",
".. c #9C3722",
"X. c #953B31",
"o. c #A42F20",
"O. c #A73721",
"+. c #AB3D21",
"@. c #A43A25",
"#. c #C13E15",
"$. c #94431F",
"%. c #9A471E",
"&. c #BC401C",
"*. c #BD4E1F",
"=. c #B84A17",
"-. c #BF5C17",
";. c #BA731D",
":. c #954828",
">. c #83433B",
",. c #934333",
"<. c #A64024",
"1. c #B24020",
"2. c #BA4727",
"3. c #AD5020",
"4. c #BC5C22",
"5. c #A74E39",
"6. c #B84E34",
"7. c #B2533B",
"8. c #BC6533",
"9. c #C34A0A",
"0. c #CB5406",
"q. c #C54A15",
"w. c #C1431B",
"e. c #C54B1E",
"r. c #C94C1C",
"t. c #C5521F",
"y. c #CB551C",
"u. c #CC5C1C",
"i. c #CC5615",
"p. c #D1591A",
"a. c #D36302",
"s. c #D36A06",
"d. c #D6690A",
"f. c #D87000",
"g. c #CE641B",
"h. c #CE6017",
"j. c #D5651A",
"k. c #D66B1D",
"l. c #D8661A",
"z. c #DB721D",
"x. c #E0791D",
"c. c #C14A24",
"v. c #C24A29",
"b. c #C84E27",
"n. c #CD5922",
"m. c #C85729",
"M. c #C35431",
"N. c #CC6727",
"B. c #D36723",
"V. c #D76A22",
"C. c #C87E2A",
"Z. c #DA7721",
"A. c #D47E2B",
"S. c #D87326",
"D. c #CF7239",
"F. c #DB7532",
"G. c #D66A3A",
"H. c #E27D21",
"J. c #AC5B44",
"K. c #A75E49",
"L. c #BB5D43",
"P. c #946C59",
"I. c #AC644C",
"U. c #A4624E",
"Y. c #B76447",
"T. c #AE6950",
"R. c #A87159",
"E. c #B97B56",
"W. c #AC7B62",
"Q. c #D46C43",
"!. c #C4775A",
"~. c #D47D53",
"^. c #E48518",
"/. c #C88E2E",
"(. c #D9852D",
"). c #C58B32",
"_. c #C88A31",
"`. c #DF8C35",
"'. c #C39035",
"]. c #EB9B2F",
"[. c #E08E36",
"{. c #E69E33",
"}. c #ED9F33",
"|. c #E69630",
" X c #EEA135",
".X c #F0A433",
"XX c #DC845B",
"oX c #DD8A58",
"OX c #E58852",
"+X c #E7A341",
"@X c #C38265",
"#X c #D58968",
"$X c #DE9872",
"%X c #CC9576",
"&X c #E19363",
"*X c #E79F73",
"=X c #E6A17A",
"-X c #D9A382",
";X c #E7AA85",
":X c #464646",
/* pixels */
":X:X:X:X:X:X:X:X:X:X:X:X:X:X:X:X:X:X:X:X:X:X:X:X:X:X:X:X:X:X:X:X:X:X:X:X:X:X:X:X:X:X:X:X:X:X:X:X:X:X",
":X:X:X:X:X:X:X:X:X:X:X:X:X:X:X:X:X:X:X:X:X:X:X:X:X:X:X:X:X:X:X:X:X:X:X:X:X:X:X:X:X:X:X:X:X:X:X:X:X:X",
":X:X:X:X:X:X:X:X:X:X:X:X:X:X:X:X:X:X:X:X:X:X:X:X:X:X:X:X:X:X:X:X:X:X:X:X:X:X:X:X:X:X:X:X:X:X:X:X:X:X",
":X:X:X:X:X:X:X:X:X:X:X:X:X:X:X:X:X:X:X:X:X:X:X:X:X:X:X:X:X:X:X:X:X:X:X:X:X:X:X:X:X:X:X:X:X:X:X:X:X:X",
":X:X:X:X:X:X:X:X:X:X:X:X:X:X:X:X:X:X:X:X:X:X:X:X:X:X:X:X:X:X:X:X:X:X:X:X:X:X:X:X:X:X:X:X:X:X:X:X:X:X",
":X:X:X:X:X:X:X:X:X:X:X:X:X:X:X:X:X:X:X:X:X:X:X:X:X:X:X:X:X:X:X:X:X:X:X:X:X:X:X:X:X:X:X:X:X:X:X:X:X:X",
":X:X:X:X:X:X:X:X:X:X:X:X:X:X:X:X:X:X:X:X:X:X:X:X:X:X:X:X:X:X:X:X:X:X:X:X:X:X:X:X:X:X:X:X:X:X:X:X:X:X",
":X:X:X:X:X:X:X:X:X:X:X:X:X:X:X:X:X:X:X:X:X:X:X:X:X:X:X:X:X:X:X:X:X:X:X:X:X:X:X:X:X:X:X:X:X:X:X:X:X:X",
":X:X:X:X:X:X:X:X:X:X:X:X:X:X:X:X:X:X:X:X:X:X:X:X:X:X:X:X:X:X:X:X:X:X:X:X:X:X:X:X:X:X:X:X:X:X:X:X:X:X",
":X:X:X:X:X:X:X:X:X:X:X:X:X:X:X:X:X:X:X:X:X:X:X:X:X:X:X:X:X:X:X:X:X:X:X:X:X:X:X:X:X:X:X:X:X:X:X:X:X:X",
":X:X:X:X:X:X:X:X:X:X:X:X:X:X:X:X:X:X:X:X:X:X:X:X:X:X:X:X:X:X:X:X:X:X:X:X:X:X:X:X:X:X:X:X:X:X:X:X:X:X",
":X:X:X:X:X:X:X:X:X:X:X:X:X:X:X:X:X:X:X:X:X:X:X:X:X:X:X:X:X:X:X:X:X:X:X:X:X:X:X:X:X:X:X:X:X:X:X:X:X:X",
":X:X:X:X:X:X:X:X:X:X:X:X:X:X:X:X:X:X:X:X:X:X:X:X:X:X:X:X:X:X:X:X:X:X:X:X:X:X:X:X:X:X:X:X:X:X:X:X:X:X",
":X:X:X:X:X:X:X:X:X:X:X:X:X:X:X:X:X:X:X:X:X:X:X:X:X:X:X:X:X:X:X:X:X:X:X:X:X:X:X:X:X:X:X:X:X:X:X:X:X:X",
":X:X:X:X:X:X:X:X:X:X:X:X:X:X:X:X:X= : : - u ; :X:X:X= - ; : u = :X:X:X:X:X:X:X:X:X:X:X:X:X:X:X:X:X:X",
":X:X:X:X:X:X:X:X:X:X:X:X:X:X:XO y F ! Q J K ' O o n G T o.+.~ K y + :X:X:X:X:X:X:X:X:X:X:X:X:X:X:X:X",
":X:X:X:X:X:X:X:X:X:X:X:X:X:X:Xp <.t.i.G.XXQ.=.} A C F ! ) #.v.7.X.y :X:X:X:X:X:X:X:X:X:X:X:X:X:X:X:X",
":X:X:X:X:X:X:X:X:X:X:X:X:X:X: +.N.S.s.oX;X&Xa.e.` ! N F / J 5.R.7.Z = :X:X:X:X:X:X:X:X:X:X:X:X:X:X:X",
":X:X:X:X:X:X:X:X:X:X:X:X:X:X& m.V.n.%.>.P.I.q.q.Y.U.@.M S q | 7.v.! # :X:X:X:X:X:X:X:X:X:X:X:X:X:X:X",
":X:X:X:X:X:X:X:X:X:X:X:X:X1 k N.V.` p O   6 Y Q 7.T.2.Z 8 O 3 Z q.2.a t :X:X:X:X:X:X:X:X:X:X:X:X:X:X",
":X:X:X:X:X:X:X:X:X:X:X:X. z R.D.j.w.f O :Xn B 7 T c.e...O :X:X& 4.j./ s O :X:X:X:X:X:X:X:X:X:X:X:X:X",
":X:X:X:X:X:X:X:X:X:X:X:X+ h M.[.A.f y :XO G ! U Y ( r.@.O :X:XO ;.`.Y.k O :X:X:X:X:X:X:X:X:X:X:X:X:X",
":X:X:X:X:X:X:X:X:X:X:X:X+ S u.}.).O :X:XO <.n.B.2.R ` ..O :X:XO '.+XE.x O :X:X:X:X:X:X:X:X:X:X:X:X:X",
":X:X:X:X:X:X:X:X:X:X:X:XO :.F. X).O :X:XO 3.H.{.(.E D e :X:X:XO '..XF.:.O :X:X:X:X:X:X:X:X:X:X:X:X:X",
":X:X:X:X:X:X:X:X:X:X:X:XO $.N.^.;.O :X:X3 ^ g.(.(.A.=.9 :X:X:XO ).}.k.} O :X:X:X:X:X:X:X:X:X:X:X:X:X",
":X:X:X:X:X:X:X:X:X:X:X:XO A e.F.8.u :X:XS Y ) E (.{.B.o.: :X:Xr _.|.t.' O :X:X:X:X:X:X:X:X:X:X:X:X:X",
":X:X:X:X:X:X:X:X:X:X:X:XO n M.=X$X_ 3 r Q u.j.` 2.N.a.0.O.= i 1.S.z.e.[ O :X:X:X:X:X:X:X:X:X:X:X:X:X",
":X:X:X:X:X:X:X:X:X:X:X:XO V b.#X#XQ B  .u.l.h.G b 1.oXOXi. .{ Q i.0.q.[ O :X:X:X:X:X:X:X:X:X:X:X:X:X",
":X:X:X:X:X:X:X:X:X:X:X:XO d / #.P n ~ n.k.u.! > X ,.-X*Xd.i.! n +.2.) w O :X:X:X:X:X:X:X:X:X:X:X:X:X",
":X:X:X:X:X:X:X:X:X:X:X:X:Xr d _ I T K.Y.n...* :X:X:Xc I.y.r.` U !.@Xg X :X:X:X:X:X:X:X:X:X:X:X:X:X:X",
":X:X:X:X:X:X:X:X:X:X:X:X:X:X# ../ / K.K.~ { i :X:X:X2 v L _ ( / E.W.1 :X:X:X:X:X:X:X:X:X:X:X:X:X:X:X",
":X:X:X:X:X:X:X:X:X:X:X:X:X:X% 0 Z ! ) T 7 ^ &.u O r 1.Q 7 K ) / D w % :X:X:X:X:X:X:X:X:X:X:X:X:X:X:X",
":X:X:X:X:X:X:X:X:X:X:X:X:X:X:Xo >.I.v.9.-.u.k.).'./.s.~.%XL.C F 9 o :X:X:X:X:X:X:X:X:X:X:X:X:X:X:X:X",
":X:X:X:X:X:X:X:X:X:X:X:X:X:X:X. j P.5.=.j.j.z.}. X].s.oX;XY.v 0 * O :X:X:X:X:X:X:X:X:X:X:X:X:X:X:X:X",
":X:X:X:X:X:X:X:X:X:X:X:X:X:X:X:X:X> $ d / w.u.z.z.z.y.b.M.f O % :X:X:X:X:X:X:X:X:X:X:X:X:X:X:X:X:X:X",
":X:X:X:X:X:X:X:X:X:X:X:X:X:X:X:X:XO O ; q f } $.%.$.} S m r + + :X:X:X:X:X:X:X:X:X:X:X:X:X:X:X:X:X:X",
":X:X:X:X:X:X:X:X:X:X:X:X:X:X:X:X:X:X:X@ + + O O O O O O O + :X:X:X:X:X:X:X:X:X:X:X:X:X:X:X:X:X:X:X:X",
":X:X:X:X:X:X:X:X:X:X:X:X:X:X:X:X:X:X:X:X:X:X:X:X:X:X:X:X:X:X:X:X:X:X:X:X:X:X:X:X:X:X:X:X:X:X:X:X:X:X",
":X:X:X:X:X:X:X:X:X:X:X:X:X:X:X:X:X:X:X:X:X:X:X:X:X:X:X:X:X:X:X:X:X:X:X:X:X:X:X:X:X:X:X:X:X:X:X:X:X:X",
":X:X:X:X:X:X:X:X:X:X:X:X:X:X:X:X:X:X:X:X:X:X:X:X:X:X:X:X:X:X:X:X:X:X:X:X:X:X:X:X:X:X:X:X:X:X:X:X:X:X",
":X:X:X:X:X:X:X:X:X:X:X:X:X:X:X:X:X:X:X:X:X:X:X:X:X:X:X:X:X:X:X:X:X:X:X:X:X:X:X:X:X:X:X:X:X:X:X:X:X:X",
":X:X:X:X:X:X:X:X:X:X:X:X:X:X:X:X:X:X:X:X:X:X:X:X:X:X:X:X:X:X:X:X:X:X:X:X:X:X:X:X:X:X:X:X:X:X:X:X:X:X",
":X:X:X:X:X:X:X:X:X:X:X:X:X:X:X:X:X:X:X:X:X:X:X:X:X:X:X:X:X:X:X:X:X:X:X:X:X:X:X:X:X:X:X:X:X:X:X:X:X:X",
":X:X:X:X:X:X:X:X:X:X:X:X:X:X:X:X:X:X:X:X:X:X:X:X:X:X:X:X:X:X:X:X:X:X:X:X:X:X:X:X:X:X:X:X:X:X:X:X:X:X",
":X:X:X:X:X:X:X:X:X:X:X:X:X:X:X:X:X:X:X:X:X:X:X:X:X:X:X:X:X:X:X:X:X:X:X:X:X:X:X:X:X:X:X:X:X:X:X:X:X:X",
":X:X:X:X:X:X:X:X:X:X:X:X:X:X:X:X:X:X:X:X:X:X:X:X:X:X:X:X:X:X:X:X:X:X:X:X:X:X:X:X:X:X:X:X:X:X:X:X:X:X",
":X:X:X:X:X:X:X:X:X:X:X:X:X:X:X:X:X:X:X:X:X:X:X:X:X:X:X:X:X:X:X:X:X:X:X:X:X:X:X:X:X:X:X:X:X:X:X:X:X:X",
":X:X:X:X:X:X:X:X:X:X:X:X:X:X:X:X:X:X:X:X:X:X:X:X:X:X:X:X:X:X:X:X:X:X:X:X:X:X:X:X:X:X:X:X:X:X:X:X:X:X",
":X:X:X:X:X:X:X:X:X:X:X:X:X:X:X:X:X:X:X:X:X:X:X:X:X:X:X:X:X:X:X:X:X:X:X:X:X:X:X:X:X:X:X:X:X:X:X:X:X:X",
":X:X:X:X:X:X:X:X:X:X:X:X:X:X:X:X:X:X:X:X:X:X:X:X:X:X:X:X:X:X:X:X:X:X:X:X:X:X:X:X:X:X:X:X:X:X:X:X:X:X",
};
