/* XPM */
static char *result[] = {
/* columns rows colors chars-per-pixel */
"16 16 17 1 ",
"  c #43020E",
". c #65020E",
"X c #66020E",
"o c #CA2B37",
"O c #F35E17",
"+ c #EC462E",
"@ c #F37833",
"# c #E7584D",
"$ c #D27878",
"% c #FF9C58",
"& c #E8807D",
"* c #B89CAA",
"= c #E9B2B2",
"- c #EBD1D0",
"; c #EADFD9",
": c #FFFEE8",
"> c None",
/* pixels */
">>>>..>>>>>>>>>>",
">>>.o.>>>>>>>>>>",
">>Xo#.>>>>>>>>>>",
">Xo#@.>>>>>>>>>>",
">X#@.>>>>>>>>>>>",
" #&X>>>>>>>>>>>>",
" $=-X>X>>::::>>>",
"X+@@OX>X:;;;:::>",
" $=-&X>X>:**;;; ",
" *=-@OX>XX&==** ",
">XO@-&OXXO=-==* ",
"> $==O&O&@-=== >",
">> $+-:%:-@==* >",
">>>X$*=O-=O$* >>",
">>>>  $+$*$X >>>",
">>>>>> X   >>>>>"
};
