/* XPM */
static char *result[] = {
/* columns rows colors chars-per-pixel */
"50 50 196 2 ",
"   c #8F0000",
".  c #990000",
"X  c #900000",
"o  c #8F1700",
"O  c #931000",
"+  c #A40000",
"@  c #AA0200",
"#  c #B20D00",
"$  c #9E2300",
"%  c #972D00",
"&  c #9E2A00",
"*  c #8D3100",
"=  c #8E3D00",
"-  c #923600",
";  c #9A3600",
":  c #933C00",
">  c #A12500",
",  c #A13E00",
"<  c #AD3A00",
"1  c #A83300",
"2  c #8F4402",
"3  c #8D450A",
"4  c #944502",
"5  c #994902",
"6  c #914B06",
"7  c #8B4517",
"8  c #A44400",
"9  c #AD4D00",
"0  c #A95112",
"q  c #89552D",
"w  c #AF592E",
"e  c #B25824",
"r  c #8A664E",
"t  c #9A6B4E",
"y  c #8D6955",
"u  c #B86E51",
"i  c #BE775D",
"p  c #B6735B",
"a  c #8B7868",
"s  c #A3796E",
"d  c #A8786B",
"f  c #B77E6E",
"g  c #B87E6D",
"h  c #B67765",
"j  c #B67F70",
"k  c #7B8B7D",
"l  c #768779",
"z  c #828F7C",
"x  c #888672",
"c  c #B68172",
"v  c #B1887C",
"b  c #C38979",
"n  c #7D8E81",
"m  c #7E9085",
"M  c #839284",
"N  c #899787",
"B  c #8B9885",
"V  c #84968B",
"C  c #889789",
"Z  c #86988E",
"A  c #8A9A8D",
"S  c #909E8F",
"D  c #869992",
"F  c #8A9D95",
"G  c #859E9C",
"H  c #899E98",
"J  c #AB8281",
"K  c #AB979B",
"L  c #8DA19B",
"P  c #92A193",
"I  c #93A69D",
"U  c #97A89D",
"Y  c #99A99C",
"T  c #BDA09B",
"R  c #8CA4A3",
"E  c #8CA9AD",
"W  c #8AA6A8",
"Q  c #96A9A2",
"!  c #9BADA4",
"~  c #96ADAB",
"^  c #9CAFAA",
"/  c #9EA5A1",
"(  c #9DB0A7",
")  c #9EB1A9",
"_  c #8EAEB5",
"`  c #8CAFB8",
"'  c #91AFB5",
"]  c #8EB2BD",
"[  c #9DB4B3",
"{  c #92B3BC",
"}  c #98B4B7",
"|  c #ACA3AD",
" . c #BFABA9",
".. c #A1B4AC",
"X. c #ABA8B3",
"o. c #A6B9B3",
"O. c #A9BCB4",
"+. c #A4BABB",
"@. c #A9BDB9",
"#. c #A1B6B0",
"$. c #C39D94",
"%. c #C3A49F",
"&. c #C5ABA8",
"*. c #C3B7B7",
"=. c #ADC0BB",
"-. c #B4C9BF",
";. c #8EB8C8",
":. c #93B6C1",
">. c #95B9C5",
",. c #9CBDC5",
"<. c #99BECC",
"1. c #90B9C8",
"2. c #A5BFC2",
"3. c #AAB4C6",
"4. c #B5BDCA",
"5. c #93C1D5",
"6. c #9BC4D5",
"7. c #9BC6D8",
"8. c #9BC9DD",
"9. c #97C8DF",
"0. c #ADC3C4",
"q. c #A6C3C8",
"w. c #AAC5C9",
"e. c #B0C6C4",
"r. c #B2C9CB",
"t. c #B7CDC7",
"y. c #A8CADE",
"u. c #A1C7D7",
"i. c #B5CED3",
"p. c #BBD3D5",
"a. c #B4D3DD",
"s. c #BDD5DA",
"d. c #9ECCE2",
"f. c #9DD0E9",
"g. c #9ED6F2",
"h. c #A1CFE4",
"j. c #A8CCE2",
"k. c #A3D3EB",
"l. c #AAD6EB",
"z. c #A8D3E6",
"x. c #BEDAE3",
"c. c #B4DAEB",
"v. c #BCDEED",
"b. c #A1D7F2",
"n. c #A5D9F3",
"m. c #ABDBF4",
"M. c #A6DDF9",
"N. c #A8DDF9",
"B. c #B2DEF4",
"V. c #B8DEF1",
"C. c #A5E3FF",
"Z. c #ACE2FE",
"A. c #B6E0F5",
"S. c #BDE3F5",
"D. c #B4E3FA",
"F. c #BBE5FB",
"G. c #B3EAFF",
"H. c #BFEDFF",
"J. c #BDF6FF",
"K. c #BEF9FF",
"L. c #CCCBCF",
"P. c #C4C2C6",
"I. c #C0D6DC",
"U. c #C2DADF",
"Y. c #C9D2D6",
"T. c #C9CCD2",
"R. c #D1E3DB",
"E. c #C3DCE3",
"W. c #CDDCE4",
"Q. c #C3DEE8",
"!. c #CBE3E6",
"~. c #C4E1EA",
"^. c #CCE4ED",
"/. c #C7E0E7",
"(. c #D7EBEA",
"). c #C3E5F5",
"_. c #CBE7F1",
"`. c #C7E8F6",
"'. c #CDEAF6",
"]. c #C2E7F9",
"[. c #C5E9FA",
"{. c #CCECFA",
"}. c #D1ECF7",
"|. c #D2EEF9",
" X c #C6F5FF",
".X c #D7F0F6",
"XX c #DAF1F5",
"oX c #D4F2FD",
"OX c #D9F5FD",
"+X c #D4FBFF",
"@X c #DCFAFF",
"#X c #E2F7F2",
"$X c #E6FAF4",
"%X c #E4FDFD",
"&X c #ECFFFF",
"*X c None",
/* pixels */
"*X*X*X*X*X*X*X*X*X*X*X*X*X*X*X*X*X*X*X}.OX{.}.@X}.*X*X*X*X*X*X*X*X*X*X*X*X*X*X*X*X*X*X*X*X*X*X*X*X*X",
"*X*X*X*X*X*X*X*X*X*X*X*X*X*X*X*X'.*X}.}.OX}.}.OX'.m.g.*X*X*X*X*X*X*X*X*X*X*X*X*X*X*X*X*X*X*X*X*X*X*X",
"*X*X*X*X*X*X*X*X*X*X*X*X*X*X*X}.%X%X@X}._._.}.}.{.J.J.m.*X*X*X*X*X*X*X*X*X*X*X*X*X*X*X*X*X*X*X*X*X*X",
"*X*X*X*X*X*X*X*X*X*X*X*X*X}.'.}.}.|.|.|.r.0.}.|.}.}.S.n.m.n.*X*X*X*X*X*X*X*X*X*X*X*X*X*X*X*X*X*X*X*X",
"*X*X*X*X*X*X*X*X*X*XOXOXoX%X&X%X}.oX^.i.o.) +.x.oX}.S.n.G.n.n.*X*X*X*X*X*X*X*X*X*X*X*X*X*X*X*X*X*X*X",
"*X*X*X*X*X*X*X*X*X^.%XOX_.^.#X#X{.oXE.! U U G i.|.oXS.n.n.Z.G.*X*X*X*X*X*X*X*X*X*X*X*X*X*X*X*X*X*X*X",
"*X*X*X*X*X*X*X*XoXs.^ L I =.^.oX}.oXE.) B W f.S.}..XS.n.b.m.n.).}.}.}.}.}.S.b.*X*X*X*X*X*X*X*X*X*X*X",
"*X*X*X*X*X*X*X@.p.e.Q U F L +.2.0.^.}.s.u.8.).'.'.).m.n.n.m.).oX@XOX@XOXOX+XA.m.*X*X*X*X*X*X*X*X*X*X",
"*X*X*X*X*X*X..-...! ....! D V l V a.|.oXS.F.}.}.`.m.b.n.b.A.}.}.}.}.}.}.}.oXoX+Xm.*X*X*X*X*X*X*X*X*X",
"*X*X*X*X*X..#.............) H V H d.D.}.}.}.}.}.'.m.b.n.b.B.}.|.}.}.}.}.|.}.}.}.[.n.*X*X*X*X*X*X*X*X",
"*X*X*X*X..#.#.) ............H M H 9.D.'.}.}.}.'.B.m.b.n.S.}.|.I.0.r.r.0.2.[ 0.}. XN.g.*X*X*X*X*X*X*X",
"*X*X*X..t...............) Q F V D 9.F.}.}.{.).B.b.b.m.B.{.}.E.@.Y ! ) U V l D i.Q.D. Xn.*X*X*X*X*X*X",
"*X*X*X..=.) ) ..........I Z D Z H 8.D.}.}.`.m.n.m.n.S.}.oXE.) ^ ) ....) F Z Z m 0.'.B.N.m.*X*X*X*X*X",
"*X*X....#.............I F Z z E d.B.`.}.|.).m.b.m.S.|.}.p.O.) ........) ^ L V V I +.l.Z.Z.n.n.*X*X*X",
"*X*Xt.O...........) I D V D W u.F..XXX}.}.'.m.g.m.{.(.s.#.U ....) ........^ L F M V >.k.m.J.m.*X*X*X",
"*X*Xo.........) ..P D D V R f.F.}.#X#X}.}.).m.b.m.{.I.! ....) ......) ..) ..) H V D M ` b.G.n.*X*X*X",
"*X*X..........^ F Q ! A { k.[.oXOXXX.X|.S.m.m.b.m.'.).7.R S ......) ........) F Z D V H ' j.n.m.*X*X",
"*X*Xp.=.....^ I I Q U Z :.z.E.I.p.V.[.|.B.b.n.m.S.'.{.B.<.E Q ^ ............) Q H D D V M 6.G.J.*X*X",
"*X*XOX0.Y ..F L ) I V D I ....P Z 9.F.'.B.b.n.S.|.|.|.|.D.8.Z Q ....) ) ..) ) ..Q V D A D 6.N.Z.*X*X",
"'.OX'.^ M F F D A M V / ......P D x.[.B.m.n.b.S..X$X%X|.|.i.M U o...I L ..! L ) ^ D D Z Z 8.N.M.n.m.",
"%X@X'.i.^ m k G :.1.:.......! F D x.F.n.b.n.n.S.}.R.p.i.).c.:.~ U U I I I I I Q I V D Z Z 7.N.m.Z.G.",
"{.}.}.OXI.Y F } m.Z.l.#.^ ! F V R d.m.n.n.n.b.[.^.o.C D d.N.m.{ M V Q ) F Q ) H D D D Z V 6.M.b.m.n.",
"}.}.'.}.}.(.!.).{.}.v.I M C z ' f.n.n.n.n.n.n.[.^.O.B Z d.F.'.} M ^ I L ( Q F D D D D V M 6.M.m.m.b.",
"S.`.}.{..X%XXX}.}.oX_.<.:.>.>.8.N.n.n.n.n.n.n.B.v.y.,.<.l.[.|.p.+.Y V V Q L V V V N M L ,.k.m.b.b.n.",
"b.A.'.|.'.'.}.}.}.}.`.D.m.N.N.m.n.n.n.n.m.n.n.n.n.m.M.Z.`.}.}.OXQ.R G L Z Z D L R R H >.m.M.m.b.m.n.",
"n.n.m.'.}.|.}.'.|.}.}.}.S.b.n.n.b.n.b.b.b.b.b.b.n.n.b.m._.oX}.}.).k.b.8.H x F 8.k.k.k.k.b.m.b.m.m.b.",
"C.m.b.B.).}.}.|.}.).B.S.m.b.b.m.S.).).S.S.S.S.B.b.n.b.m.A.S.S.'.|.].D.b.5.<.6.b.M.N.M.M.n.m.m.b.M.M.",
"y.z.m.g.B.'.'.'.'.B.b.m.m.B.m.S..X}.|.}.}.}.}.).m.m.m.n.b.b.b.).'.}.B.b.n.N.m.n.n.n.b.m.n.b.b.m.k.y.",
"w X.M.n.n.m.m.m.m.b.m.'.'.'.'.'.{.}.}.}.}.}.{.'.'.'.S.m.n.n.n.m.m.m.n.n.n.n.n.m.n.m.n.n.b.m.b.M.X.w ",
"# | C.M.n.n.b.b.b.B.).}.|.oXoXoXoX}.}.}.}.}.}.}.}.}.S.b.n.m.n.M.m.b.n.n.n.n.n.l.n.n.n.n.m.b.M.C.| # ",
"< K j.k.n.n.n.n.B.).|.}._.^././.Q.'.'.^.'.|.XX}.}.}.S.n.n.k.d.h.k.n.m.n.n.n.n.n.n.n.n.n.n.m.k.j.K < ",
"4 8 h y.C.n.b.B.'.}.|.oXp...o.Q I Q./...s.XX$XXX{.}.S.n.C.7.F V ` m.N.m.n.n.n.n.n.n.n.n.b.C.j.h 8 4 ",
"*X% 9 v 3.n.D.`.'.oX^.i.O.( I k M E.).8.v.XXXXoX}.}.).b.N.7.V S ! { { <.m.M.g.b.g.m.S.].).4.J 9 % *X",
"*X*X2 1 K D.{..X}..X!.q.~ U Z D ' Q.{.D.).}.'.'.}.}.).b.n.7.D ! ) A z H 7.n.B.B.m.B.'.oX|.$.+ 4 *X*X",
"*X*X*Xk r.'.oX{.'.#X#XD.1.N M { m.`.}.'.}.}.'.}.}.}.S.b.M.7.D U ....I V m r.|.}.'.'.}.oXoX&.@ *X*X*X",
"*X*X*Xr v T W.oX}..X.X`.z.5.5.z.[.'.}.}.}.}.}.}.'.S.m.n.m.6.M B P L V m ;./.%XXX}.}.|.~.q.v & *X*X*X",
"*X*X*X* . 1 T.OX}.'.}.oX`.D.D.].}.XX}.}.}.}.}.}.`.m.b.n.m.8._ _ ` ` [ q.B.{.#X}.'.}.OXI.x q - *X*X*X",
"*X*X*X*X*Xe Y.OX}.'.}.'.oX'.'.'.}.#X$X}.'.}.}.|.'.m.b.n.n.n.n.b.n.n.).}.}.}.}.}.{.}.oXY.e *X*X*X*X*X",
"*X*X*X*X*X0 h *.oXoX^.0.s..X.X'.}..X}.}.}.}.}.).B.m.n.n.b.D.`.a.2.q.[ 0.}.oX'.'.oXoX*.g 9 *X*X*X*X*X",
"*X*X*X*X*X4 . p P._._.0.s.oX}.{.}.}.}.}.}.'.).B.g.b.b.n.D.v./.=.Y Y A R i.^.}.}.^.P.p . 2 *X*X*X*X*X",
"*X*X*X*X*X*X3 , < P.OX}.{.}.'.|.}.'.|.}.}.).m.b.n.n.m.m.'.E.^ ) ! D Q ^ V w.oXoXP.< , 3 *X*X*X*X*X*X",
"*X*X*X*X*X*X*X*X< L.+X}.}.|.'.}.'.B.B.}.S.m.g.g.n.).{.{.oXp.B N A M M L 5.v.|.+XL.< *X*X*X*X*X*X*X*X",
"*X*X*X*X*X*X*X*X8 %.Y._.}.|.}.}.|.S.S.}.).B.B.S.S.|.Q.p.'.x.] ] { { ` <.B.{.'.Y.%.8 *X*X*X*X*X*X*X*X",
"*X*X*X*X*X*X*X*X3 + g ^.oX'.}.}.'.}.}.}.}.}.}.}.}.|.r.H Q.{.N.m.N.m.M.B.{.OX^.h + 3 *X*X*X*X*X*X*X*X",
"*X*X*X*X*X*X*X*X*X+ b }.oX'.'.}.|.'.|.{.|.|.}.}.}.}._.Q.'.}.'.).`.{.`.`.{.OX'.b @ *X*X*X*X*X*X*X*X*X",
"*X*X*X*X*X*X*X*X*X$ i *.^.oXoXoXoX|.}.oX|.oX|.oXoX|.oXoXoXoXoXoXoXoXOXoXoXW.*.i $ *X*X*X*X*X*X*X*X*X",
"*X*X*X*X*X*X*X*X*X7 : +  .'.^.^.^._.^.^.^.^.^.^.^.^.^.^.^.^.^.^.^.^.^.^.}.&.+ : 7 *X*X*X*X*X*X*X*X*X",
"*X*X*X*X*X*X*X*X*X*X*X: u c s d c / / j g j f j f j j j j f f s s h d s c u : *X*X*X*X*X*X*X*X*X*X*X",
"*X*X*X*X*X*X*X*X*X*X*X*X; > o O 1 r r & > & & & & > & & > & & X : t 6   > ; *X*X*X*X*X*X*X*X*X*X*X*X",
"*X*X*X*X*X*X*X*X*X*X*X*X*X5 4 3 2 = : 2 2 2 2 2 2 2 3 2 3 2 2 - y D a - 5 *X*X*X*X*X*X*X*X*X*X*X*X*X"
};
